<svg width="1437" height="682" viewBox="0 0 1437 682" fill="none" xmlns="http://www.w3.org/2000/svg">
<path style="mix-blend-mode:screen" d="M1190 -4C1129.05 114.803 920.077 198.134 683.405 189.368C470.185 181.471 298.177 101.175 244 -4H1190Z" fill="url(#paint0_radial_453_3587)"/>
<g style="mix-blend-mode:multiply" opacity="0.3">
<path d="M675.225 188.848L626.612 191.993L618.632 192.522C619.076 191.993 619.52 191.463 619.965 190.95C640.503 167.062 662.597 162.278 662.597 162.278L675.225 188.848Z" fill="#528591"/>
</g>
<g style="mix-blend-mode:multiply" opacity="0.3">
<path d="M626.612 191.993L618.632 192.523C619.076 191.993 619.52 191.463 619.965 190.951L626.612 191.993Z" fill="#528591"/>
</g>
<path d="M1238.94 458.628L1222.24 465.729C1203.81 477.079 1182.85 483.689 1161.25 484.967L1172.49 463.86L1158.31 485.076C1154.98 485.153 1151.58 485.086 1148.11 484.847C1143.77 484.551 1139.48 483.865 1135.26 482.799L1145.44 463.414L1132.64 482.073C1130.66 481.488 1128.74 480.831 1126.9 480.102L1141.77 461.33L1141.77 461.327C1144.05 461.549 1146.42 461.757 1148.89 461.952C1178.93 464.441 1209.16 463.325 1238.94 458.628Z" fill="url(#paint1_linear_453_3587)"/>
<path d="M862.476 250.352C862.476 250.352 854.521 471.035 856.797 470.194C859.073 469.354 873.377 253.44 873.377 253.44L959.792 256.914C959.792 256.914 1043.57 378.65 1110.3 370.68C1177.03 362.71 1255.89 262.61 1255.89 262.61C1255.89 262.61 1161.45 371.191 1100.01 364.685C1038.56 358.179 951.892 240.267 951.892 240.267L862.476 250.352Z" fill="url(#paint2_linear_453_3587)"/>
<path d="M740.998 241.276L763.806 349.18C763.806 349.18 764.151 370.751 769.153 370.68C774.154 370.61 775.164 353.214 775.164 353.214C775.164 353.214 775.614 358.718 778.834 357.752C782.054 356.786 827.974 261.015 827.974 261.015C827.974 261.015 830.983 323.066 839.104 323.139C847.225 323.212 864.55 239.259 864.55 239.259C864.55 239.259 844.807 313.779 839.104 313.559C833.401 313.338 834.838 232.41 834.838 232.41L819.114 236.202C819.114 236.202 809.187 328.087 778.834 333.549C748.481 339.011 752.657 220.638 752.657 220.638L740.998 241.276Z" fill="url(#paint3_linear_453_3587)"/>
<path style="mix-blend-mode:multiply" opacity="0.2" fill-rule="evenodd" clip-rule="evenodd" d="M1123.59 515.408V546.118L1035.98 548.705V521.728L1123.59 515.408Z" fill="url(#paint4_linear_453_3587)"/>
<path style="mix-blend-mode:multiply" opacity="0.4" d="M1510.21 179.48L1508.22 184.97L1485.11 425.906L1360.7 445.655L1285.65 418.007L1193.05 415.854H1192.93L1184.91 401.2H1164.83L1165.22 401.102H1165.26L1255.2 381.037L1241.14 326.056L1263.21 190.461L1396.4 184.536L1510.21 179.48Z" fill="url(#paint5_linear_453_3587)"/>
<path style="mix-blend-mode:multiply" opacity="0.4" d="M1508.21 346.221C1508.21 346.221 1239.12 326.065 1241.13 326.065C1243.14 326.065 1263.22 190.468 1263.22 190.468L1502.19 175.809L1508.21 346.221Z" fill="url(#paint6_linear_453_3587)"/>
<path fill-rule="evenodd" clip-rule="evenodd" d="M1392.55 459.341L1392.49 463.962L1389.72 649.562L1363.62 649.305L1273.92 648.397H1273.44L1180.51 647.429L1110.75 646.718H1109.33L1034.19 645.948L948.318 643.578L947.074 643.538H946.916L933.921 643.163L889.427 641.939L886.011 641.84H885.793L885.991 641.406L894.799 622.545L902.501 606.075H902.54L937.18 598.63L938.148 598.412L969.607 591.638L976.125 590.236L989.771 587.294L1029.64 578.723L1031.97 578.229H1032.01C1032.57 578.091 1033.1 577.972 1033.67 577.854C1033.68 577.846 1033.69 577.841 1033.7 577.837C1033.71 577.834 1033.72 577.833 1033.73 577.834L1049.99 574.339L1076.67 568.611L1089.58 565.827C1089.72 565.803 1089.86 565.77 1090 565.728C1090.39 565.649 1090.79 565.59 1091.16 565.491L1094.12 564.859L1094.85 562.726L1105.8 531.879L1097.5 509.938L1097.54 509.878L1109.96 496.331L1114.84 490.998L1114.86 490.979L1115.2 490.623L1167.83 433.174L1169.17 431.712H1194.09L1193.93 431.377L1193.6 430.765L1193.48 430.528V430.488H1193.46L1193.05 429.678L1193.42 429.698H1193.68L1241.83 431.318L1241.96 431.337L1315.27 433.806L1384.19 456.576L1384.21 456.596L1384.71 456.754L1392.55 459.341Z" fill="url(#paint7_linear_453_3587)"/>
<path fill-rule="evenodd" clip-rule="evenodd" d="M1397.76 107.18L1397.41 131.531L1397.13 149.621L1396.75 174.978L1396.66 181.238L1396.44 196.169L1396.4 198.361L1396.24 210.565L1393.42 399.72V400.253L1392.88 436.591L1392.84 439.553L1392.81 441.587L1392.61 455.174V455.471L1392.55 459.341L1384.71 456.754L1384.21 456.596L1384.19 456.577L1315.27 433.806L1241.96 431.338L1241.83 431.318L1193.68 429.698H1193.42L1193.05 429.679L1190.02 423.813L1185.46 415.025L1185.42 414.946L1165.26 414.926H1163.78L1142.39 360.222V360.202L1140.22 358.484L1060.47 295.031H1060.45L1058.36 293.353L1053.38 289.383L1047.83 284.979L1047.48 284.703L1047.46 284.683V272.34H975.789L975.315 272.952L970.476 279.133L969.706 280.121L966.527 279.864L951.991 278.659L935.027 277.218L932.559 277.02L931.492 276.922L931.216 276.902H931.196L926.871 276.546L917.708 275.776L908.663 275.026L885.319 273.07L861.285 271.056L855.538 270.562L827.238 268.212L822.024 267.758H822.005L747.295 261.498L672.309 255.237L671.716 255.178L671.696 254.546L671.677 253.776L671.657 253.302L671.538 250.063L670.827 229.287L670.511 220.953L670.492 220.124L670.274 220.065L460.581 220.815L460.404 220.776L385.635 204.641H385.615L385.595 204.621L371.613 215.779L345.564 236.594L333.873 245.936L331.839 247.555L259.795 305.103V305.123H259.775L256.655 307.631L277.865 357.042L277.845 357.062L274.567 360.854L268.425 367.983L264.238 368.438L242.614 370.709L211.114 374.007L197.645 375.429L177.245 377.581L153.902 380.03L145.291 380.939L116.991 383.901L116.715 375.824L115.392 335.556L107.551 97.4836L129.275 98.1749L262.204 102.362L383.482 106.193L384.825 106.232L428.016 107.595L428.608 107.615L430.504 107.556L651.098 100.09L652.836 100.15L658.82 100.327L697.232 101.532L705.388 101.789L826.547 102.737L861.107 102.994H861.384L862.529 103.013L969.548 103.843L974.367 103.882L992.457 104.021L1125.25 105.047L1263.49 106.134L1319.69 106.568L1334.72 106.687H1334.78L1397.76 107.18Z" fill="url(#paint8_linear_453_3587)"/>
<path style="mix-blend-mode:multiply" opacity="0.4" d="M1439.93 667.889L1363.62 659.693L1303.38 653.235L885.775 642.353L885.815 642.176L885.894 641.84L885.993 641.406L894.801 622.545L902.503 606.075H902.542L937.182 598.63L938.149 598.412L969.609 591.638L976.126 590.236L989.773 587.294L1029.65 578.723L1031.98 578.229H1032.02C1032.57 578.091 1033.1 577.972 1033.67 577.854C1033.68 577.846 1033.69 577.841 1033.7 577.837C1033.71 577.834 1033.72 577.833 1033.73 577.834L1049.99 574.339L1076.67 568.611L1089.58 565.827C1089.72 565.803 1089.86 565.77 1090 565.728C1090.39 565.649 1090.79 565.59 1091.16 565.491L1094.13 564.859L1094.86 562.726L1105.8 531.879L1097.5 509.938L1097.54 509.878L1101.14 510.214L1224.86 521.254L1227.31 521.471L1279.47 526.132L1279.51 526.151L1280.83 526.27L1313.61 471.23L1315.43 468.149L1363.62 460.23L1384.71 456.754L1392.61 455.451L1416.53 451.521L1437.93 448.005L1437.12 453.041L1431.46 488.866L1427.54 513.532L1413.84 600.091L1434.1 652.702L1434.22 653.038L1439.93 667.889Z" fill="url(#paint9_linear_453_3587)"/>
<path style="mix-blend-mode:multiply" opacity="0.5" d="M1492.14 332.554L1482.39 397.468L1480.61 437.637L1456.12 438.723L1428.08 439.987L1392.81 441.587L1438.47 447.472L1439.69 447.63L1392.61 455.233L1386.05 456.28L1384.2 456.576L1317.25 467.379L1211.97 439.257L1184.4 434.379L1175.12 432.739L1169.35 431.712H1194.61L1194.43 431.377L1194.05 430.765L1193.9 430.508L1193.42 429.698L1190.03 423.813L1184.91 415.025H1164.83L1165.22 414.926H1165.26L1169.92 413.86L1222.59 401.951L1225.1 401.378L1254.17 394.802L1250.87 379.556L1250.34 377.127L1248.34 367.943L1246.94 361.466L1242.36 340.354L1147.21 359.274L1142.39 360.222L1140.22 358.484L1060.47 295.031H1060.45L1058.36 293.352L1053.38 289.383L1047.83 284.979L1047.48 284.702L1047.83 284.505L1051.01 282.609L1058.87 277.928L1136.7 231.775L1200.93 188.525L1209.66 182.64L1210.17 182.304L1210.74 181.929L1210.82 181.87L1210.88 181.83L1221.05 174.978H1474.07L1475.81 189.967L1492.14 332.554Z" fill="url(#paint10_linear_453_3587)"/>
<path style="mix-blend-mode:multiply" opacity="0.6" d="M385.636 204.621V204.64H385.616L371.614 215.798L345.565 236.594L333.874 245.915L331.84 247.535L257.703 306.722C257.367 306.979 257.11 307.176 256.933 307.314C256.913 307.334 256.893 307.334 256.893 307.354L256.794 307.433C256.676 307.532 256.617 307.571 256.617 307.571L251.897 307.038L246.604 306.426L246.17 306.386L241.213 305.814L197.647 300.876L191.643 300.185L189.471 299.928H189.431L186.666 299.612L184.988 302.555L181.887 308.025L176.792 316.952L154.653 355.699L151.217 361.723L154.476 361.604L197.647 360.024L238.29 358.523L251.897 358.01L270.441 357.338L277.847 357.062L274.568 360.854L268.426 367.983L264.24 368.437L242.615 370.708L211.115 374.006L197.647 375.428L177.246 377.581L153.903 380.03L145.293 380.938L116.992 383.9L107.572 384.888L108.895 376.574L115.393 335.555L127.558 259.009L136.248 204.245L129.276 98.1744L128.368 84.2515L262.206 102.361L284.226 105.343C285.299 106.019 286.287 106.821 287.168 107.733C289.044 109.412 291.691 111.9 294.949 115.02C298.208 118.14 302.039 121.873 306.305 126.02L306.344 126.06C307.371 127.047 308.398 128.054 309.445 129.081C332.847 151.95 384.727 203.712 385.399 204.384L385.478 204.463L385.577 204.542L385.636 204.621Z" fill="url(#paint11_linear_453_3587)"/>
<path style="mix-blend-mode:multiply" opacity="0.4" d="M1420.02 400.312L1419.86 400.924L1409.91 437.124L1409.16 439.869L1392.85 439.553L1363.62 438.98L1315.27 433.806L1242.2 432.522H1242.14L1194.61 431.673L1194.47 431.377L1194.17 430.785L1194.05 430.508L1193.68 429.698L1186.91 415.025H1164.83L1165.22 414.926H1165.26L1169.92 413.86L1222.59 401.951L1225.1 401.379L1254.17 394.802L1273.46 396.027L1274.71 396.106L1280.83 396.501L1295.62 397.468L1313.26 397.863L1363.62 399.028L1393.42 399.72L1420.02 400.312Z" fill="url(#paint12_linear_453_3587)"/>
<path style="mix-blend-mode:multiply" opacity="0.6" d="M1544.36 429.678L1522.64 478.043L1443.96 653.235L1434.22 653.038L1109.94 646.718H1109.33L948.32 643.578L946.918 643.538L885.775 642.354L886.012 641.84L894.939 622.526L895.117 622.17V622.15L902.542 606.075L946.148 609.61L950.236 609.946H950.295L1144.74 625.745L1243.13 587.254L1092.11 570.073L1107.91 530.575L1281.29 535.947L1279.51 526.151L1279.29 524.966L1315.43 468.149L1384.22 456.596L1386.05 456.28L1392.61 455.174L1438.47 447.472L1522.64 433.332L1544.36 429.678Z" fill="url(#paint13_linear_453_3587)"/>
<path style="mix-blend-mode:multiply" opacity="0.5" d="M1471.29 402.207L1419.86 400.924L1393.42 400.252L1313.3 398.258L1313.26 397.863L1307.33 339.228L1307.22 338.103L1298.13 248.127L1297.38 240.662L1293.55 202.764V202.744L1267.15 204.443L1264.78 204.601L1264.4 204.403L1220.16 182.304L1216.67 180.547L1216.08 180.25L1212.32 182.304L1200.93 188.525L1056.84 267.264L1054.77 268.409L1050.84 270.542L1047.48 272.359H975.851L975.318 272.951L969.709 279.034L970.795 271.391L979.267 211.947L980.314 204.601L954.838 199.347L952.152 198.794L885.776 185.128L840.552 186.313L742.617 225.436L740.148 226.423L705.391 240.306L703.218 241.156L686.925 243.565L673.476 253.834L671.719 255.177L671.699 254.545L671.679 253.775L671.66 253.301L671.541 250.062L670.83 228.635L670.554 220.933L670.514 219.787L675.076 182.304L678.019 158.29L660.284 119.937L651.101 100.09L647.921 93.1974L646.539 90.2154L642.55 81.5851L821.869 74.7718H821.889L866.383 73.0931H866.403L880.503 72.5599L959.795 69.5581L1316.52 56.0302L1319.44 102.598V102.618L1319.7 106.567L1322.03 143.3L1384.34 174.977L1396.66 181.238L1418.28 192.238L1443.48 205.035L1450.91 208.827L1471.29 402.207Z" fill="url(#paint14_linear_453_3587)"/>
<path style="mix-blend-mode:multiply" opacity="0.4" d="M1422.43 141.464L1419.71 174.978L1418.28 192.238L1418.09 194.786L1396.44 196.169L1293.55 202.765L1267.15 204.443L1264.78 204.601L1264.4 204.404L1216.08 178.967L1210.82 181.87L1210.74 181.93L1056.84 267.264L1100.92 230.788L1104.63 227.727L1177.74 167.217L1174.11 155.683L1157.7 136.823L1154.3 132.913L1143 119.938L1125.25 105.047L1108.15 90.7097L1319.44 102.599H1319.46L1325.33 102.934L1334.79 106.687L1397.41 131.531L1422.43 141.464Z" fill="url(#paint15_linear_453_3587)"/>
<g style="mix-blend-mode:multiply" opacity="0.8">
<path d="M1215.22 408.618L1249.98 377.123L1253.93 377.117L1270.21 386.059L1274.85 396.405H1273.62L1269.49 386.458L1251.4 379.104L1218.76 406.758L1220.41 410.804L1238.79 415.933L1242.29 432.968L1242.4 433.468L1237.77 416.37L1218.48 410.905L1215.22 408.618Z" fill="#230B19"/>
</g>
<g style="mix-blend-mode:multiply" opacity="0.8">
<path d="M1249.47 476.294L1224.87 521.262L1230.4 533.876L1235.57 534.334L1227.26 521.392L1249.47 476.294Z" fill="#230B19"/>
</g>
<path style="mix-blend-mode:multiply" opacity="0.5" fill-rule="evenodd" clip-rule="evenodd" d="M1167.83 508.279L1142.27 503.184L1116.2 497.99L1110.56 496.864L1110.83 496.528L1114.84 490.999L1114.86 490.979L1115.14 490.604L1115.2 490.623L1118.42 491.709L1167.83 508.279Z" fill="url(#paint16_linear_453_3587)"/>
<g opacity="0.5">
<path opacity="0.5" d="M1151.43 458.547C1148.48 457.291 1151.29 457.84 1151.63 456.232C1153.37 452.805 1155.35 449.502 1157.55 446.348L1164.09 443.241L1151.43 458.547Z" fill="#9C3D37"/>
<path opacity="0.5" d="M1157.01 457.372C1155.74 459.893 1155.17 457.533 1153.06 463.342C1150.94 469.152 1152.06 469.659 1152.06 469.659L1154.42 462.52L1157.01 457.372Z" fill="#9C3D37"/>
<path opacity="0.5" d="M1174.81 462.81C1170.53 464.807 1170.25 465.747 1170.61 466.246C1170.97 466.745 1169.2 471.195 1169.2 471.195L1171.56 469.299L1174.81 462.81Z" fill="#9C3D37"/>
<path opacity="0.5" d="M1162.96 486.432C1154.19 492.454 1154.39 493.873 1154.39 493.873L1158.52 495.281L1160.74 490.857L1162.96 486.432Z" fill="#9C3D37"/>
</g>
<g style="mix-blend-mode:multiply" opacity="0.5">
<path style="mix-blend-mode:multiply" opacity="0.5" d="M841.651 212.523C832.475 210.764 824.585 203.691 823.608 202.731C822.631 201.771 827.42 198.002 827.42 198.002L840.86 197.984L841.651 212.523Z" fill="url(#paint17_linear_453_3587)"/>
<path style="mix-blend-mode:multiply" opacity="0.5" d="M871.845 231.148C871.507 232.43 867.251 230.682 868.558 233.886C869.011 234.86 869.681 235.717 870.516 236.391C871.352 237.066 872.331 237.54 873.378 237.777L871.154 233.766L871.845 231.148Z" fill="url(#paint18_linear_453_3587)"/>
<path style="mix-blend-mode:multiply" opacity="0.5" d="M924.701 240.336C915.884 240.327 916.255 240.864 917.778 241.309C919.302 241.753 919.898 244.159 919.898 244.159L923.831 243.636L924.701 240.336Z" fill="url(#paint19_linear_453_3587)"/>
<path style="mix-blend-mode:multiply" opacity="0.5" d="M841.701 215.082C825.881 216.345 828.077 217.352 828.077 217.352L840.514 219.581L841.107 217.332L841.701 215.082Z" fill="url(#paint20_linear_453_3587)"/>
</g>
<g style="mix-blend-mode:multiply" opacity="0.3">
<path style="mix-blend-mode:multiply" opacity="0.3" d="M214.805 153.397C197.485 155.181 180.029 155.201 162.705 153.456C159.517 153.08 167.931 147.454 167.931 147.454L200.521 140.966L214.805 153.397Z" fill="url(#paint21_linear_453_3587)"/>
<path style="mix-blend-mode:multiply" opacity="0.3" d="M303.894 155.271C304.164 156.563 292.351 157.072 298.249 159.266C304.148 161.46 313.25 160.374 313.25 160.374L304.444 157.91L303.894 155.271Z" fill="url(#paint22_linear_453_3587)"/>
<path style="mix-blend-mode:multiply" opacity="0.3" d="M439.935 137.918C418.535 142.155 419.892 142.45 423.967 142.108C426.574 141.953 429.179 142.466 431.533 143.599L440.628 141.244L439.935 137.918Z" fill="url(#paint23_linear_453_3587)"/>
<path style="mix-blend-mode:multiply" opacity="0.3" d="M217.102 155.627C179.797 164.357 185.98 164.187 185.98 164.187L218.048 160.163L217.575 157.895L217.102 155.627Z" fill="url(#paint24_linear_453_3587)"/>
</g>
<g style="mix-blend-mode:multiply" opacity="0.5">
<path style="mix-blend-mode:multiply" opacity="0.5" d="M1093.86 600.789C1086.52 598.701 1060.59 595.358 1059.84 594.638C1059.08 593.917 1063.08 591.988 1063.08 591.988L1073.93 593.375L1093.86 600.789Z" fill="url(#paint25_linear_453_3587)"/>
<path style="mix-blend-mode:multiply" opacity="0.5" d="M1068.75 603.883C1068.43 604.673 1065.06 603.104 1066 605.304C1066.8 606.76 1068.15 607.84 1069.74 608.312L1068.1 605.497L1068.75 603.883Z" fill="url(#paint26_linear_453_3587)"/>
<path style="mix-blend-mode:multiply" opacity="0.5" d="M1111.06 615.301C1103.94 614.377 1104.22 614.762 1105.44 615.207C1105.83 615.415 1106.18 615.706 1106.46 616.061C1106.74 616.416 1106.94 616.826 1107.04 617.263L1110.23 617.336L1111.06 615.301Z" fill="url(#paint27_linear_453_3587)"/>
<path style="mix-blend-mode:multiply" opacity="0.5" d="M1040.38 595.348C1027.61 596.57 1029.49 597.157 1029.49 597.157L1059.4 600.367L1040.1 596.803L1040.38 595.348Z" fill="url(#paint28_linear_453_3587)"/>
</g>
<g style="mix-blend-mode:multiply" opacity="0.5">
<path style="mix-blend-mode:multiply" opacity="0.5" d="M1076.93 210.301C1066.16 208.689 1029.15 208.614 1027.91 207.743C1026.68 206.872 1031.75 203.476 1031.75 203.476L1047.22 203.491L1076.93 210.301Z" fill="url(#paint29_linear_453_3587)"/>
<path style="mix-blend-mode:multiply" opacity="0.5" d="M1042.74 219.052C1042.5 220.21 1037.39 218.619 1039.27 221.52C1040.77 223.402 1042.91 224.661 1045.28 225.049L1042.25 221.417L1042.74 219.052Z" fill="url(#paint30_linear_453_3587)"/>
<path style="mix-blend-mode:multiply" opacity="0.5" d="M1104.68 227.485C1094.52 227.455 1095.01 227.942 1096.82 228.348C1097.43 228.569 1097.99 228.911 1098.47 229.355C1098.95 229.799 1099.33 230.335 1099.59 230.93L1104.06 230.466L1104.68 227.485Z" fill="url(#paint31_linear_453_3587)"/>
<path style="mix-blend-mode:multiply" opacity="0.5" d="M1021.09 208.714C1003.02 209.818 1005.67 210.734 1005.67 210.734L1047.92 216.687L1020.67 210.747L1021.09 208.714Z" fill="url(#paint32_linear_453_3587)"/>
</g>
<g style="mix-blend-mode:multiply" opacity="0.5">
<path style="mix-blend-mode:multiply" opacity="0.5" d="M737.18 219.607C738.438 221.511 733.9 221.736 738.334 225.209C742.769 228.681 745.651 227.493 745.651 227.493L739.75 223.497L737.18 219.607Z" fill="url(#paint33_linear_453_3587)"/>
<path style="mix-blend-mode:multiply" opacity="0.5" d="M779.262 200.195C773.977 205.456 774.812 205.948 776.229 205.627C777.647 205.306 780.745 208.144 780.745 208.144L782.501 205.097L779.262 200.195Z" fill="url(#paint34_linear_453_3587)"/>
</g>
<g style="mix-blend-mode:multiply" opacity="0.5">
<path style="mix-blend-mode:multiply" opacity="0.5" d="M402.061 177.815C422.224 178.933 489.951 175.528 492.461 176.566C494.97 177.603 486.64 182.586 486.64 182.586L458.323 184.031L402.061 177.815Z" fill="url(#paint35_linear_453_3587)"/>
<path style="mix-blend-mode:multiply" opacity="0.5" d="M520.808 185.017C520.921 183.459 530.71 185.084 526.453 181.417C522.196 177.749 514.476 177.306 514.476 177.306L521.039 181.834L520.808 185.017Z" fill="url(#paint36_linear_453_3587)"/>
<path style="mix-blend-mode:multiply" opacity="0.5" d="M249.878 142.947C336.41 145.824 331.466 145.006 315.439 143.934C306.084 143.35 296.805 141.881 287.727 139.548L250.413 138.95L249.878 142.947Z" fill="url(#paint37_linear_453_3587)"/>
<path style="mix-blend-mode:multiply" opacity="0.5" d="M588.194 186.215C602.338 184.844 600.136 184.427 600.136 184.427L566.024 182.746L588.28 185.034L588.194 186.215Z" fill="url(#paint38_linear_453_3587)"/>
</g>
<g style="mix-blend-mode:multiply" opacity="0.5">
<path style="mix-blend-mode:multiply" opacity="0.5" d="M429.124 113.046L429.361 109.866L428.018 107.595L426.793 105.541C428.236 105.736 429.557 106.453 430.506 107.556C430.973 108.071 431.353 108.658 431.632 109.294C433.271 112.849 429.242 111.486 429.124 113.046Z" fill="url(#paint39_linear_453_3587)"/>
<path style="mix-blend-mode:multiply" opacity="0.5" d="M380.957 111.032L381.253 107.023L383.484 106.193L384.65 105.759C384.701 105.92 384.76 106.078 384.827 106.233C385.143 107.023 385.914 108.543 386.96 108.741C388.362 109.017 388.777 109.59 380.957 111.032Z" fill="url(#paint40_linear_453_3587)"/>
</g>
<g style="mix-blend-mode:multiply" opacity="0.5">
<path style="mix-blend-mode:multiply" opacity="0.5" d="M1204.51 338.226C1224.63 336.6 1290.84 324.715 1293.51 325.319C1296.18 325.923 1288.91 331.481 1288.91 331.481L1261.23 336.469L1204.51 338.226Z" fill="url(#paint41_linear_453_3587)"/>
<path style="mix-blend-mode:multiply" opacity="0.5" d="M1261.03 317.071C1260.84 315.658 1270.81 315.841 1265.92 313.104C1261.02 310.368 1253.31 310.976 1253.31 310.976L1260.65 314.185L1261.03 317.071Z" fill="url(#paint42_linear_453_3587)"/>
<path style="mix-blend-mode:multiply" opacity="0.5" d="M1145.82 327.383C1163.99 324.132 1162.86 323.729 1159.41 323.846C1157.14 323.817 1154.93 323.09 1153.09 321.765L1145.35 323.745L1145.82 327.383Z" fill="url(#paint43_linear_453_3587)"/>
<path style="mix-blend-mode:multiply" opacity="0.5" d="M1336.22 340.624C1367.95 333.505 1362.73 333.304 1362.73 333.304L1284.03 340.108L1335.9 338.143L1336.22 340.624Z" fill="url(#paint44_linear_453_3587)"/>
</g>
<g style="mix-blend-mode:multiply" opacity="0.5">
<path style="mix-blend-mode:multiply" opacity="0.5" d="M1252.76 247.931C1272.89 246.487 1338.82 231.8 1341.54 232.855C1344.26 233.91 1337.23 241.988 1337.23 241.988L1309.67 248.158L1252.76 247.931Z" fill="url(#paint45_linear_453_3587)"/>
<path style="mix-blend-mode:multiply" opacity="0.5" d="M1308.47 218.657C1308.22 216.499 1318.25 217.286 1313.19 212.875C1308.12 208.464 1300.41 208.996 1300.41 208.996L1307.95 214.249L1308.47 218.657Z" fill="url(#paint46_linear_453_3587)"/>
<path style="mix-blend-mode:multiply" opacity="0.5" d="M1193.21 228.447C1211.31 224.433 1210.15 223.762 1206.7 223.764C1204.19 223.439 1201.88 222.197 1200.23 220.277L1192.55 222.892L1193.21 228.447Z" fill="url(#paint47_linear_453_3587)"/>
<path style="mix-blend-mode:multiply" opacity="0.5" d="M1353.12 228.393C1384.64 219.19 1379.39 218.619 1379.39 218.619L1300.64 224.942L1352.67 224.605L1353.12 228.393Z" fill="url(#paint48_linear_453_3587)"/>
</g>
<g style="mix-blend-mode:multiply" opacity="0.5">
<path style="mix-blend-mode:multiply" opacity="0.5" d="M1362.77 160.878C1362.51 158.72 1366.8 159.972 1364.36 155.349C1361.92 150.726 1358.7 150.893 1358.7 150.893L1362.24 156.47L1362.77 160.878Z" fill="url(#paint49_linear_453_3587)"/>
<path style="mix-blend-mode:multiply" opacity="0.5" d="M1314.83 165.221C1322.19 162.076 1321.65 161.354 1320.19 161.194C1318.74 161.034 1317.23 157.425 1317.23 157.425L1314.17 159.666L1314.83 165.221Z" fill="url(#paint50_linear_453_3587)"/>
</g>
<g style="mix-blend-mode:multiply" opacity="0.5">
<path style="mix-blend-mode:multiply" opacity="0.5" d="M1041.97 161.076C1062.1 159.632 1128.03 144.945 1130.75 146C1133.47 147.055 1126.44 155.133 1126.44 155.133L1098.88 161.303L1041.97 161.076Z" fill="url(#paint51_linear_453_3587)"/>
<path style="mix-blend-mode:multiply" opacity="0.5" d="M1097.68 131.801C1097.43 129.643 1107.46 130.431 1102.4 126.02C1097.33 121.609 1089.62 122.14 1089.62 122.14L1097.16 127.394L1097.68 131.801Z" fill="url(#paint52_linear_453_3587)"/>
<path style="mix-blend-mode:multiply" opacity="0.5" d="M982.426 141.592C1000.52 137.578 999.364 136.907 995.908 136.908C993.397 136.583 991.095 135.341 989.444 133.422L981.764 136.036L982.426 141.592Z" fill="url(#paint53_linear_453_3587)"/>
<path style="mix-blend-mode:multiply" opacity="0.5" d="M1142.33 141.538C1173.85 132.335 1168.6 131.764 1168.6 131.764L1089.85 138.087L1141.88 137.75L1142.33 141.538Z" fill="url(#paint54_linear_453_3587)"/>
</g>
<g style="mix-blend-mode:multiply" opacity="0.5">
<path style="mix-blend-mode:multiply" opacity="0.5" d="M1151.98 74.0225C1151.72 71.8647 1156.01 73.1171 1153.57 68.4937C1151.13 63.8703 1147.92 64.0379 1147.92 64.0379L1151.46 69.615L1151.98 74.0225Z" fill="url(#paint55_linear_453_3587)"/>
<path style="mix-blend-mode:multiply" opacity="0.5" d="M1104.04 78.3655C1111.4 75.2206 1110.87 74.4991 1109.41 74.339C1107.95 74.1788 1106.44 70.5695 1106.44 70.5695L1103.38 72.8102L1104.04 78.3655Z" fill="url(#paint56_linear_453_3587)"/>
</g>
<g style="mix-blend-mode:multiply" opacity="0.5">
<path style="mix-blend-mode:multiply" opacity="0.5" d="M1356.63 543.409C1336.45 542.5 1268.67 549.382 1266.16 548.022C1263.64 546.662 1271.99 539.481 1271.99 539.481L1300.33 536.574L1356.63 543.409Z" fill="url(#paint57_linear_453_3587)"/>
<path style="mix-blend-mode:multiply" opacity="0.5" d="M1227.74 564.23C1227.62 566.396 1217.83 564.451 1222.09 569.406C1226.34 574.361 1234.07 574.731 1234.07 574.731L1227.51 568.654L1227.74 564.23Z" fill="url(#paint58_linear_453_3587)"/>
<path style="mix-blend-mode:multiply" opacity="0.5" d="M1263.2 545.936C1244.59 547.808 1245.63 548.607 1249.05 549.006C1251.46 549.6 1253.54 551.107 1254.85 553.209L1262.9 551.512L1263.2 545.936Z" fill="url(#paint59_linear_453_3587)"/>
<path style="mix-blend-mode:multiply" opacity="0.5" d="M1139.02 556.735C1106.24 562.185 1111.34 563.36 1111.34 563.36L1190.38 566.246L1138.82 560.537L1139.02 556.735Z" fill="url(#paint60_linear_453_3587)"/>
</g>
<g style="mix-blend-mode:multiply" opacity="0.5">
<path style="mix-blend-mode:multiply" opacity="0.5" d="M1180.17 624.287C1180.05 626.453 1176.03 624.716 1177.65 629.576C1179.27 634.437 1182.49 634.645 1182.49 634.645L1179.94 628.712L1180.17 624.287Z" fill="url(#paint61_linear_453_3587)"/>
<path style="mix-blend-mode:multiply" opacity="0.5" d="M1228.37 625.555C1220.55 627.814 1220.96 628.591 1222.37 628.919C1223.79 629.246 1224.66 632.995 1224.66 632.995L1228.08 631.132L1228.37 625.555Z" fill="url(#paint62_linear_453_3587)"/>
</g>
<path d="M1099.16 681.673L1098.45 681.772V681.693L1099.16 681.673Z" fill="url(#paint63_linear_453_3587)"/>
<g style="mix-blend-mode:color-dodge" opacity="0.6">
<path d="M670.828 220.775V229.287L670.512 220.953L670.551 220.933L670.828 220.775Z" fill="#FFAB32"/>
</g>
<path style="mix-blend-mode:multiply" opacity="0.4" d="M156.746 289.481C141.5 289.165 130.579 288.771 130.48 288.198C130.322 287.368 128.959 274.393 127.557 259.009C125.543 237.147 123.43 210.427 124.575 206.694C124.891 205.667 129.196 204.877 136.247 204.246C142.27 203.712 150.288 203.337 159.511 203.061C182.755 202.369 213.623 202.389 239.276 202.764C220.535 204.127 204.973 206.793 200.608 211.73C187.613 226.443 183.249 276.941 188.384 281.325C193.38 285.551 244.451 290.903 247.63 291.239C232.424 290.37 186.369 290.074 156.746 289.481Z" fill="url(#paint64_linear_453_3587)"/>
<path style="mix-blend-mode:multiply" opacity="0.18" d="M229.085 224.468C236.72 224.468 242.91 221.816 242.91 218.544C242.91 215.272 236.72 212.619 229.085 212.619C221.451 212.619 215.261 215.272 215.261 218.544C215.261 221.816 221.451 224.468 229.085 224.468Z" fill="url(#paint65_linear_453_3587)"/>
<path style="mix-blend-mode:multiply" opacity="0.18" d="M212.3 234.343C213.936 234.343 215.262 233.459 215.262 232.368C215.262 231.277 213.936 230.393 212.3 230.393C210.664 230.393 209.337 231.277 209.337 232.368C209.337 233.459 210.664 234.343 212.3 234.343Z" fill="url(#paint66_linear_453_3587)"/>
<path style="mix-blend-mode:multiply" opacity="0.18" d="M229.086 236.317C230.177 236.317 231.061 235.875 231.061 235.33C231.061 234.784 230.177 234.342 229.086 234.342C227.996 234.342 227.111 234.784 227.111 235.33C227.111 235.875 227.996 236.317 229.086 236.317Z" fill="url(#paint67_linear_453_3587)"/>
<path style="mix-blend-mode:multiply" opacity="0.18" d="M223.162 250.142C228.616 250.142 233.036 249.257 233.036 248.167C233.036 247.076 228.616 246.192 223.162 246.192C217.709 246.192 213.288 247.076 213.288 248.167C213.288 249.257 217.709 250.142 223.162 250.142Z" fill="url(#paint68_linear_453_3587)"/>
<path style="mix-blend-mode:multiply" opacity="0.18" d="M211.312 261.991C212.403 261.991 213.287 261.549 213.287 261.004C213.287 260.458 212.403 260.016 211.312 260.016C210.222 260.016 209.337 260.458 209.337 261.004C209.337 261.549 210.222 261.991 211.312 261.991Z" fill="url(#paint69_linear_453_3587)"/>
<path d="M1098.45 681.693L1099.16 681.673L1098.45 681.772V681.693Z" fill="url(#paint70_linear_453_3587)"/>
<path d="M1007.36 310.75C1007.36 310.75 1023.62 345.532 1026.27 346.222C1028.91 346.911 1042.07 339.936 1042.07 339.936C1042.07 339.936 1041.9 348.592 1045.28 351.702C1048.66 354.811 1050.05 346.222 1050.05 346.222C1050.05 346.222 1078.29 364.685 1090.14 366.66C1101.98 368.635 1100.35 434.547 1102.15 434.177C1103.96 433.806 1101.98 368.635 1101.98 368.635C1101.98 368.635 1041.1 353.584 1007.36 310.75Z" fill="url(#paint71_linear_453_3587)"/>
<g style="mix-blend-mode:multiply" opacity="0.38">
<path d="M1350.82 572.739L1349.66 584.055H1103.65L1096.99 556.742L1263.2 572.739H1350.82Z" fill="#30704C"/>
</g>
<path style="mix-blend-mode:color-dodge" opacity="0.4" d="M582.195 193.877C592.603 200.675 603.974 205.867 615.927 209.281C610.555 205.865 598.054 200.177 582.195 193.877ZM582.195 193.877C592.603 200.675 603.974 205.867 615.927 209.281C610.555 205.865 598.054 200.177 582.195 193.877ZM582.195 193.877C592.603 200.675 603.974 205.867 615.927 209.281C610.555 205.865 598.054 200.177 582.195 193.877ZM582.195 193.877C592.603 200.675 603.974 205.867 615.927 209.281C610.555 205.865 598.054 200.177 582.195 193.877ZM582.195 193.877C592.603 200.675 603.974 205.867 615.927 209.281C610.555 205.865 598.054 200.177 582.195 193.877ZM582.195 193.877C592.603 200.675 603.974 205.867 615.927 209.281C610.555 205.865 598.054 200.177 582.195 193.877ZM778.815 164.728C776.682 163.464 774.569 162.22 772.495 160.976C742.062 169.053 677.602 185.326 671.974 180.191C664.588 173.457 653.686 153.372 652.837 143.755C652.462 139.687 659.611 132.32 667.826 124.5C633.937 149.442 561.538 176.419 545.324 174.978C521.883 172.884 493.721 165.222 472.708 148.949C456.257 136.211 481.852 78.2479 493.74 53.6607L0 38.8293C0 38.8293 75.0456 74.3772 116.735 122.11C158.405 169.843 440.399 155.347 442.848 164.195C445.316 173.023 418.675 184.971 421.539 188.328C424.402 191.685 493.721 220.519 469.232 220.775L626.176 225.12C632.456 220.025 640.692 213.172 642.607 210.743C645.787 206.694 643.733 190.994 649.697 185.01C655.661 179.046 664.825 179.362 666.168 181.179C667.273 182.68 689.511 215.483 697.371 227.095L704.026 227.273C697.015 218.879 680.742 198.736 679.281 190.955C677.8 183.213 747.849 170.119 778.815 164.728ZM442.848 155.723C427.542 160.067 376.966 138.265 394.977 135.599C501.62 119.799 458.173 151.398 442.848 155.723ZM634.905 208.136C631.153 211.454 624.103 211.355 615.927 209.281C618.158 210.723 619.146 211.75 618.632 212.283C613.201 217.872 527.294 222.493 499.428 219.61C471.582 216.727 448.298 198.795 438.424 188.92C428.55 179.046 443.401 177.308 452.288 162.141C459.002 150.706 535.233 175.136 582.195 193.877C574.276 188.743 568.411 183.568 567.344 180.191C563.928 169.507 593.887 167.019 593.887 167.019C650.625 158.942 647.762 196.82 634.905 208.136ZM646.932 177.723C638.203 174.425 624.043 149.64 642.548 148.949C655.108 148.475 655.661 181.021 646.932 177.723ZM691.031 97.4833C689.353 90.7885 668.834 67.9786 660.263 58.6571L563.493 55.754C609.429 66.1222 665.852 81.1115 681.749 95.0542C686.687 99.3792 686.39 104.731 682.421 110.577C687.891 105.027 691.723 100.228 691.031 97.4833ZM682.421 110.577C678.116 114.961 672.783 119.819 667.826 124.5C673.42 120.688 678.35 115.985 682.421 110.577ZM615.927 209.281C610.555 205.865 598.054 200.177 582.195 193.877C592.603 200.675 603.974 205.867 615.927 209.281ZM582.195 193.877C592.603 200.675 603.974 205.867 615.927 209.281C610.555 205.865 598.054 200.177 582.195 193.877ZM582.195 193.877C592.603 200.675 603.974 205.867 615.927 209.281C610.555 205.865 598.054 200.177 582.195 193.877ZM582.195 193.877C592.603 200.675 603.974 205.867 615.927 209.281C610.555 205.865 598.054 200.177 582.195 193.877ZM582.195 193.877C592.603 200.675 603.974 205.867 615.927 209.281C610.555 205.865 598.054 200.177 582.195 193.877Z" fill="url(#paint72_linear_453_3587)"/>
<path style="mix-blend-mode:color-dodge" opacity="0.4" d="M1193.26 335.279C1201.6 326.056 1208.51 315.638 1213.76 304.372C1203.63 318.097 1196.03 329.532 1193.26 335.279ZM1193.26 335.279C1201.6 326.056 1208.51 315.638 1213.76 304.372C1203.63 318.097 1196.03 329.532 1193.26 335.279ZM1193.26 335.279C1201.6 326.056 1208.51 315.638 1213.76 304.372C1203.63 318.097 1196.03 329.532 1193.26 335.279ZM1193.26 335.279C1201.6 326.056 1208.51 315.638 1213.76 304.372C1203.63 318.097 1196.03 329.532 1193.26 335.279ZM1193.26 335.279C1201.6 326.056 1208.51 315.638 1213.76 304.372C1203.63 318.097 1196.03 329.532 1193.26 335.279ZM1084.65 286.638C1090.96 289.083 1097.63 290.471 1104.39 290.745C1097.72 289.402 1090.61 288.079 1084.65 286.638ZM1156.61 177.229L1076.02 230.847C1073.66 243.309 1068.29 273.505 1070.41 280.081C1071.28 282.767 1077.06 284.821 1084.65 286.638C1078.19 283.774 1075.11 279.39 1077 273.11C1083.12 252.867 1123.1 210.328 1156.61 177.229ZM1193.26 335.279C1201.6 326.056 1208.51 315.638 1213.76 304.372C1203.63 318.097 1196.03 329.532 1193.26 335.279ZM1263.49 106.133L1214.71 138.581C1237.82 153.175 1290.17 188.841 1282.94 208.353C1273.7 233.276 1253.85 254.664 1235.07 268.844C1222.06 278.639 1146.34 294.004 1104.39 290.745C1115.49 293.036 1125.47 295.505 1127.3 299.158C1131.67 307.789 1133.03 330.599 1130.3 340.216C1129.93 341.539 1127.54 343.297 1123.71 345.331L1135.08 354.396C1135.42 345.568 1135.7 338.735 1135.76 337.985C1135.93 335.733 1143.56 330.618 1151.77 332.534C1159.99 334.449 1166.54 348.866 1171.38 350.624C1174.3 351.671 1188.74 347.879 1196.78 348.886L1323.86 267.481C1302.95 280.219 1346.53 219.097 1347.21 214.732C1347.86 210.368 1318.93 214.317 1316.36 205.509C1315.35 202.113 1351.65 179.579 1397.13 149.62C1469.33 102.065 1564.7 35.7682 1570.92 -2.60374C1581.09 -65.168 1626 -135 1626 -135L1263.49 106.133ZM1150.27 324.871C1144.6 332.297 1127.86 304.372 1138.78 298.131C1154.85 288.948 1155.94 317.466 1150.27 324.871ZM1333.18 224.152C1330.02 237.759 1319.74 265.289 1297.62 282.471C1275.48 299.632 1200.12 341.125 1192.55 339.248C1191.84 339.071 1192.14 337.688 1193.26 335.279C1187.42 341.362 1181.49 345.173 1176.56 344.344C1159.65 341.52 1137.2 310.889 1189.63 287.744C1189.63 287.744 1216.39 274.018 1219.13 284.9C1220 288.336 1217.77 295.821 1213.76 304.372C1243.72 263.63 1295.5 202.606 1307.25 208.768C1322.82 216.944 1336.34 210.565 1333.18 224.152ZM1311.88 198.321C1296.57 202.745 1242.99 198.894 1341.87 155.94C1358.56 148.672 1327.16 193.917 1311.88 198.321ZM1193.26 335.279C1201.6 326.056 1208.51 315.638 1213.76 304.372C1203.63 318.097 1196.03 329.532 1193.26 335.279ZM1193.26 335.279C1201.6 326.056 1208.51 315.638 1213.76 304.372C1203.63 318.097 1196.03 329.532 1193.26 335.279ZM1193.26 335.279C1201.6 326.056 1208.51 315.638 1213.76 304.372C1203.63 318.097 1196.03 329.532 1193.26 335.279ZM1193.26 335.279C1201.6 326.056 1208.51 315.638 1213.76 304.372C1203.63 318.097 1196.03 329.532 1193.26 335.279ZM1193.26 335.279C1201.6 326.056 1208.51 315.638 1213.76 304.372C1203.63 318.097 1196.03 329.532 1193.26 335.279ZM1193.26 335.279C1201.6 326.056 1208.51 315.638 1213.76 304.372C1203.63 318.097 1196.03 329.532 1193.26 335.279ZM1193.26 335.279C1201.6 326.056 1208.51 315.638 1213.76 304.372C1203.63 318.097 1196.03 329.532 1193.26 335.279Z" fill="url(#paint73_linear_453_3587)"/>
<path d="M682.421 110.577C678.35 115.985 673.42 120.688 667.826 124.5C672.783 119.819 678.115 114.961 682.421 110.577Z" fill="url(#paint74_linear_453_3587)"/>
<path d="M667.826 124.5C672.783 119.819 678.115 114.961 682.421 110.577C678.35 115.985 673.42 120.688 667.826 124.5Z" fill="url(#paint75_linear_453_3587)"/>
<path d="M461.886 75.6427C461.886 75.6427 467.261 410.378 463.246 410.107C459.231 409.836 455.016 96.3119 455.016 96.3119C455.016 96.3119 440.707 231.366 406.396 231.366C372.085 231.366 340.502 80.8545 340.502 80.8545L349.744 85.4749C349.744 85.4749 365.825 210.641 403.178 216.043C432.304 220.254 417.04 77.4252 417.04 77.4252L461.886 75.6427Z" fill="#0C1A26"/>
<path d="M345.17 89.5896C345.17 89.5896 355.982 244.953 390.293 251.815C424.604 258.677 433.437 75.4038 433.437 75.4038L445.239 70.4279C445.239 70.4279 428.035 262.108 390.293 262.108C352.551 262.108 335.847 93.2477 335.847 93.2477L345.17 89.5896Z" fill="#0C1A26"/>
<path d="M5 120.177C5 120.177 118.478 152.202 140.191 155.716C161.904 159.231 206.948 152.073 206.948 152.073C206.948 152.073 248.439 153.279 256.493 152.456C264.547 151.633 556.684 105.02 556.684 105.02L581.95 107.136L633.214 113.407C633.214 113.407 683.685 155.285 716.905 161.057C750.126 166.828 848.667 144.23 848.667 144.23L873.19 146.308L1047 100.22L275.13 25L37.8848 51.6198L5 120.177Z" fill="#180D1E"/>
<g style="mix-blend-mode:screen">
<path style="mix-blend-mode:screen" opacity="0.79" d="M1069.73 325.857C1069.61 326.547 1069.29 327.186 1068.8 327.692C1068.32 328.199 1067.69 328.55 1067.01 328.701C1066.32 328.852 1065.61 328.797 1064.95 328.542C1064.3 328.288 1063.74 327.845 1063.34 327.27C1062.93 326.695 1062.71 326.014 1062.7 325.313C1062.68 324.612 1062.88 323.922 1063.25 323.331C1063.63 322.739 1064.17 322.273 1064.82 321.991C1065.46 321.709 1066.17 321.624 1066.86 321.746C1067.32 321.828 1067.76 321.998 1068.15 322.249C1068.54 322.499 1068.88 322.825 1069.15 323.206C1069.42 323.588 1069.6 324.018 1069.7 324.473C1069.81 324.928 1069.81 325.398 1069.73 325.857Z" fill="url(#paint76_radial_453_3587)"/>
<path style="mix-blend-mode:screen" opacity="0.5" d="M1179.09 424.414C1179.05 424.602 1178.97 424.776 1178.83 424.915C1178.7 425.053 1178.53 425.148 1178.34 425.19C1178.16 425.231 1177.96 425.216 1177.78 425.146C1177.61 425.077 1177.45 424.956 1177.34 424.799C1177.23 424.642 1177.17 424.457 1177.17 424.265C1177.16 424.074 1177.22 423.886 1177.32 423.725C1177.42 423.564 1177.57 423.437 1177.75 423.36C1177.92 423.283 1178.12 423.259 1178.3 423.293C1178.56 423.338 1178.78 423.481 1178.93 423.691C1179.08 423.901 1179.13 424.161 1179.09 424.414Z" fill="url(#paint77_radial_453_3587)"/>
<path style="mix-blend-mode:screen" opacity="0.5" d="M1172.87 394.019C1173.11 394.54 1173.19 395.121 1173.1 395.687C1173.01 396.254 1172.76 396.782 1172.37 397.203C1171.98 397.625 1171.47 397.922 1170.91 398.056C1170.36 398.19 1169.77 398.156 1169.23 397.958C1168.69 397.76 1168.23 397.406 1167.89 396.942C1167.55 396.478 1167.36 395.925 1167.34 395.351C1167.31 394.778 1167.46 394.211 1167.76 393.721C1168.06 393.232 1168.5 392.842 1169.02 392.601C1169.36 392.442 1169.74 392.352 1170.12 392.336C1170.5 392.321 1170.88 392.381 1171.24 392.513C1171.59 392.644 1171.92 392.845 1172.2 393.104C1172.48 393.362 1172.71 393.673 1172.87 394.019Z" fill="url(#paint78_radial_453_3587)"/>
<path style="mix-blend-mode:screen" opacity="0.5" d="M1196.69 413.78C1196.55 414.534 1196.2 415.231 1195.67 415.783C1195.14 416.335 1194.46 416.718 1193.71 416.883C1192.97 417.048 1192.19 416.988 1191.47 416.71C1190.76 416.432 1190.15 415.949 1189.71 415.322C1189.27 414.695 1189.03 413.952 1189.01 413.187C1188.99 412.422 1189.21 411.67 1189.62 411.025C1190.03 410.38 1190.62 409.871 1191.32 409.564C1192.02 409.256 1192.8 409.163 1193.55 409.297C1194.56 409.476 1195.46 410.048 1196.05 410.889C1196.64 411.73 1196.87 412.77 1196.69 413.78Z" fill="url(#paint79_radial_453_3587)"/>
<path style="mix-blend-mode:screen" opacity="0.5" d="M1185.12 438.414C1185.06 438.759 1184.9 439.079 1184.65 439.332C1184.41 439.585 1184.1 439.76 1183.76 439.836C1183.41 439.912 1183.06 439.884 1182.73 439.757C1182.4 439.629 1182.12 439.408 1181.92 439.121C1181.72 438.833 1181.61 438.493 1181.6 438.142C1181.59 437.791 1181.69 437.446 1181.88 437.151C1182.07 436.855 1182.34 436.622 1182.66 436.481C1182.98 436.34 1183.34 436.298 1183.68 436.359C1183.91 436.399 1184.13 436.485 1184.33 436.61C1184.52 436.735 1184.69 436.898 1184.83 437.089C1184.96 437.28 1185.06 437.495 1185.11 437.722C1185.16 437.949 1185.16 438.185 1185.12 438.414Z" fill="url(#paint80_radial_453_3587)"/>
<path style="mix-blend-mode:screen" opacity="0.5" d="M1118.11 463.705C1118.01 464.27 1117.75 464.793 1117.35 465.207C1116.95 465.622 1116.44 465.909 1115.88 466.033C1115.32 466.156 1114.74 466.111 1114.2 465.903C1113.67 465.694 1113.21 465.332 1112.88 464.862C1112.55 464.392 1112.37 463.834 1112.35 463.261C1112.34 462.687 1112.5 462.122 1112.81 461.639C1113.12 461.155 1113.56 460.774 1114.09 460.543C1114.61 460.312 1115.2 460.242 1115.76 460.343C1116.14 460.409 1116.49 460.549 1116.82 460.754C1117.14 460.959 1117.41 461.225 1117.63 461.537C1117.85 461.849 1118.01 462.202 1118.09 462.574C1118.17 462.946 1118.18 463.33 1118.11 463.705Z" fill="url(#paint81_radial_453_3587)"/>
<path style="mix-blend-mode:screen" opacity="0.5" d="M1124.77 481.58C1124.7 481.957 1124.52 482.305 1124.26 482.581C1123.99 482.858 1123.65 483.049 1123.28 483.132C1122.91 483.214 1122.52 483.184 1122.16 483.045C1121.8 482.906 1121.5 482.665 1121.28 482.351C1121.06 482.038 1120.94 481.666 1120.93 481.284C1120.92 480.901 1121.03 480.525 1121.23 480.202C1121.44 479.88 1121.73 479.626 1122.08 479.472C1122.43 479.318 1122.82 479.272 1123.2 479.338C1123.45 479.383 1123.69 479.476 1123.9 479.612C1124.12 479.749 1124.3 479.926 1124.45 480.135C1124.59 480.343 1124.7 480.578 1124.75 480.826C1124.8 481.074 1124.81 481.33 1124.77 481.58Z" fill="url(#paint82_radial_453_3587)"/>
<path style="mix-blend-mode:screen" opacity="0.5" d="M1149.72 451.623C1149.58 452.377 1149.23 453.073 1148.7 453.626C1148.17 454.178 1147.49 454.561 1146.74 454.726C1145.99 454.891 1145.21 454.831 1144.5 454.553C1143.79 454.275 1143.17 453.792 1142.74 453.165C1142.3 452.538 1142.06 451.795 1142.04 451.03C1142.02 450.265 1142.23 449.513 1142.65 448.868C1143.06 448.223 1143.65 447.714 1144.35 447.407C1145.05 447.099 1145.83 447.006 1146.58 447.139C1147.08 447.228 1147.56 447.414 1147.99 447.687C1148.42 447.961 1148.79 448.316 1149.08 448.732C1149.37 449.148 1149.57 449.618 1149.68 450.114C1149.79 450.61 1149.8 451.123 1149.72 451.623Z" fill="url(#paint83_radial_453_3587)"/>
</g>
<defs>
<radialGradient id="paint0_radial_453_3587" cx="0" cy="0" r="1" gradientUnits="userSpaceOnUse" gradientTransform="translate(691.542 -15.0213) rotate(-171.957) scale(432.196 232.485)">
<stop stop-color="#C650BF"/>
<stop offset="1"/>
</radialGradient>
<linearGradient id="paint1_linear_453_3587" x1="1147.03" y1="436.957" x2="1204.81" y2="489.086" gradientUnits="userSpaceOnUse">
<stop stop-color="#A6B81F"/>
<stop offset="0.75511" stop-color="#7E9529"/>
<stop offset="1" stop-color="#70892C"/>
</linearGradient>
<linearGradient id="paint2_linear_453_3587" x1="489.281" y1="594.295" x2="1073.17" y2="266.044" gradientUnits="userSpaceOnUse">
<stop stop-color="#FF7D01"/>
<stop offset="1" stop-color="#251607"/>
</linearGradient>
<linearGradient id="paint3_linear_453_3587" x1="427.007" y1="483.52" x2="1010.9" y2="155.269" gradientUnits="userSpaceOnUse">
<stop stop-color="#FF8C01"/>
<stop offset="1" stop-color="#06263E"/>
</linearGradient>
<linearGradient id="paint4_linear_453_3587" x1="1639.91" y1="532.057" x2="1644.69" y2="532.057" gradientUnits="userSpaceOnUse">
<stop stop-color="#9C3D37"/>
<stop offset="1" stop-color="#632A88"/>
</linearGradient>
<linearGradient id="paint5_linear_453_3587" x1="1164.83" y1="312.568" x2="1510.21" y2="312.568" gradientUnits="userSpaceOnUse">
<stop stop-color="#9C3D37"/>
<stop offset="1" stop-color="#632A88"/>
</linearGradient>
<linearGradient id="paint6_linear_453_3587" x1="1372.68" y1="134.537" x2="1374.49" y2="318.358" gradientUnits="userSpaceOnUse">
<stop stop-color="#9C3D37"/>
<stop offset="1" stop-color="#632A88"/>
</linearGradient>
<linearGradient id="paint7_linear_453_3587" x1="1075.09" y1="432.458" x2="1200.64" y2="663.897" gradientUnits="userSpaceOnUse">
<stop stop-color="#9C3D37"/>
<stop offset="1" stop-color="#632A88"/>
</linearGradient>
<linearGradient id="paint8_linear_453_3587" x1="736.419" y1="552.073" x2="756.084" y2="157.263" gradientUnits="userSpaceOnUse">
<stop stop-color="#9C3D37"/>
<stop offset="1" stop-color="#632A88"/>
</linearGradient>
<linearGradient id="paint9_linear_453_3587" x1="885.775" y1="557.947" x2="1439.93" y2="557.947" gradientUnits="userSpaceOnUse">
<stop stop-color="#9C3D37"/>
<stop offset="1" stop-color="#632A88"/>
</linearGradient>
<linearGradient id="paint10_linear_453_3587" x1="1047.48" y1="321.178" x2="1492.14" y2="321.178" gradientUnits="userSpaceOnUse">
<stop stop-color="#9C3D37"/>
<stop offset="1" stop-color="#632A88"/>
</linearGradient>
<linearGradient id="paint11_linear_453_3587" x1="107.572" y1="234.57" x2="385.636" y2="234.57" gradientUnits="userSpaceOnUse">
<stop stop-color="#9C3D37"/>
<stop offset="1" stop-color="#632A88"/>
</linearGradient>
<linearGradient id="paint12_linear_453_3587" x1="1164.83" y1="417.336" x2="1420.02" y2="417.336" gradientUnits="userSpaceOnUse">
<stop stop-color="#9C3D37"/>
<stop offset="1" stop-color="#632A88"/>
</linearGradient>
<linearGradient id="paint13_linear_453_3587" x1="727.002" y1="839.268" x2="1548.93" y2="453.187" gradientUnits="userSpaceOnUse">
<stop stop-color="#9C3D37"/>
<stop offset="1" stop-color="#632A88"/>
</linearGradient>
<linearGradient id="paint14_linear_453_3587" x1="642.549" y1="229.119" x2="1471.29" y2="229.119" gradientUnits="userSpaceOnUse">
<stop stop-color="#9C3D37"/>
<stop offset="1" stop-color="#632A88"/>
</linearGradient>
<linearGradient id="paint15_linear_453_3587" x1="1056.84" y1="178.987" x2="1422.43" y2="178.987" gradientUnits="userSpaceOnUse">
<stop stop-color="#9C3D37"/>
<stop offset="1" stop-color="#632A88"/>
</linearGradient>
<linearGradient id="paint16_linear_453_3587" x1="1139.41" y1="509.827" x2="1138.79" y2="488.89" gradientUnits="userSpaceOnUse">
<stop stop-color="#9C4F4B"/>
<stop offset="1" stop-color="#6A3B88"/>
</linearGradient>
<linearGradient id="paint17_linear_453_3587" x1="828.707" y1="410.756" x2="821.648" y2="782.876" gradientUnits="userSpaceOnUse">
<stop stop-color="#9C4F4B"/>
<stop offset="1" stop-color="#6A3B88"/>
</linearGradient>
<linearGradient id="paint18_linear_453_3587" x1="867.501" y1="411.489" x2="860.442" y2="783.604" gradientUnits="userSpaceOnUse">
<stop stop-color="#9C4F4B"/>
<stop offset="1" stop-color="#6A3B88"/>
</linearGradient>
<linearGradient id="paint19_linear_453_3587" x1="917.557" y1="412.438" x2="910.498" y2="784.552" gradientUnits="userSpaceOnUse">
<stop stop-color="#9C4F4B"/>
<stop offset="1" stop-color="#6A3B88"/>
</linearGradient>
<linearGradient id="paint20_linear_453_3587" x1="831.145" y1="410.795" x2="824.086" y2="782.901" gradientUnits="userSpaceOnUse">
<stop stop-color="#9C4F4B"/>
<stop offset="1" stop-color="#6A3B88"/>
</linearGradient>
<linearGradient id="paint21_linear_453_3587" x1="183.74" y1="398.52" x2="176.68" y2="770.638" gradientUnits="userSpaceOnUse">
<stop stop-color="#9C4F4B"/>
<stop offset="1" stop-color="#6A3B88"/>
</linearGradient>
<linearGradient id="paint22_linear_453_3587" x1="300.342" y1="400.736" x2="293.283" y2="772.861" gradientUnits="userSpaceOnUse">
<stop stop-color="#9C4F4B"/>
<stop offset="1" stop-color="#6A3B88"/>
</linearGradient>
<linearGradient id="paint23_linear_453_3587" x1="426.125" y1="403.115" x2="419.065" y2="775.231" gradientUnits="userSpaceOnUse">
<stop stop-color="#9C4F4B"/>
<stop offset="1" stop-color="#6A3B88"/>
</linearGradient>
<linearGradient id="paint24_linear_453_3587" x1="197.333" y1="398.777" x2="190.274" y2="770.894" gradientUnits="userSpaceOnUse">
<stop stop-color="#9C4F4B"/>
<stop offset="1" stop-color="#6A3B88"/>
</linearGradient>
<linearGradient id="paint25_linear_453_3587" x1="1080.25" y1="415.525" x2="1073.19" y2="787.646" gradientUnits="userSpaceOnUse">
<stop stop-color="#9C4F4B"/>
<stop offset="1" stop-color="#6A3B88"/>
</linearGradient>
<linearGradient id="paint26_linear_453_3587" x1="1071.41" y1="415.357" x2="1064.35" y2="787.479" gradientUnits="userSpaceOnUse">
<stop stop-color="#9C4F4B"/>
<stop offset="1" stop-color="#6A3B88"/>
</linearGradient>
<linearGradient id="paint27_linear_453_3587" x1="1111.69" y1="416.115" x2="1104.63" y2="788.247" gradientUnits="userSpaceOnUse">
<stop stop-color="#9C4F4B"/>
<stop offset="1" stop-color="#6A3B88"/>
</linearGradient>
<linearGradient id="paint28_linear_453_3587" x1="1047.88" y1="414.907" x2="1040.82" y2="787.036" gradientUnits="userSpaceOnUse">
<stop stop-color="#9C4F4B"/>
<stop offset="1" stop-color="#6A3B88"/>
</linearGradient>
<linearGradient id="paint29_linear_453_3587" x1="1028.27" y1="210.888" x2="1075.9" y2="203.557" gradientUnits="userSpaceOnUse">
<stop stop-color="#9C4F4B"/>
<stop offset="1" stop-color="#6A3B88"/>
</linearGradient>
<linearGradient id="paint30_linear_453_3587" x1="1039.21" y1="222.775" x2="1044.81" y2="221.914" gradientUnits="userSpaceOnUse">
<stop stop-color="#9C4F4B"/>
<stop offset="1" stop-color="#6A3B88"/>
</linearGradient>
<linearGradient id="paint31_linear_453_3587" x1="1096.08" y1="229.723" x2="1104.82" y2="228.377" gradientUnits="userSpaceOnUse">
<stop stop-color="#9C4F4B"/>
<stop offset="1" stop-color="#6A3B88"/>
</linearGradient>
<linearGradient id="paint32_linear_453_3587" x1="1006.46" y1="216.578" x2="1046.96" y2="210.347" gradientUnits="userSpaceOnUse">
<stop stop-color="#9C4F4B"/>
<stop offset="1" stop-color="#6A3B88"/>
</linearGradient>
<linearGradient id="paint33_linear_453_3587" x1="739.696" y1="227.644" x2="743.62" y2="224.745" gradientUnits="userSpaceOnUse">
<stop stop-color="#9C4F4B"/>
<stop offset="1" stop-color="#6A3B88"/>
</linearGradient>
<linearGradient id="paint34_linear_453_3587" x1="777.412" y1="208.511" x2="782.583" y2="204.691" gradientUnits="userSpaceOnUse">
<stop stop-color="#9C4F4B"/>
<stop offset="1" stop-color="#6A3B88"/>
</linearGradient>
<linearGradient id="paint35_linear_453_3587" x1="490.844" y1="171.773" x2="412.039" y2="202.998" gradientUnits="userSpaceOnUse">
<stop stop-color="#9C4F4B"/>
<stop offset="1" stop-color="#6A3B88"/>
</linearGradient>
<linearGradient id="paint36_linear_453_3587" x1="526.265" y1="179.598" x2="516.86" y2="183.324" gradientUnits="userSpaceOnUse">
<stop stop-color="#9C4F4B"/>
<stop offset="1" stop-color="#6A3B88"/>
</linearGradient>
<linearGradient id="paint37_linear_453_3587" x1="319.756" y1="142.094" x2="303.98" y2="171.738" gradientUnits="userSpaceOnUse">
<stop stop-color="#9C4F4B"/>
<stop offset="1" stop-color="#6A3B88"/>
</linearGradient>
<linearGradient id="paint38_linear_453_3587" x1="598.823" y1="180.87" x2="569.832" y2="192.356" gradientUnits="userSpaceOnUse">
<stop stop-color="#9C4F4B"/>
<stop offset="1" stop-color="#6A3B88"/>
</linearGradient>
<linearGradient id="paint39_linear_453_3587" x1="426.793" y1="109.294" x2="432.024" y2="109.294" gradientUnits="userSpaceOnUse">
<stop stop-color="#9C4F4B"/>
<stop offset="1" stop-color="#6A3B88"/>
</linearGradient>
<linearGradient id="paint40_linear_453_3587" x1="380.957" y1="108.395" x2="387.766" y2="108.395" gradientUnits="userSpaceOnUse">
<stop stop-color="#9C4F4B"/>
<stop offset="1" stop-color="#6A3B88"/>
</linearGradient>
<linearGradient id="paint41_linear_453_3587" x1="1290.81" y1="320.591" x2="1221.47" y2="364.812" gradientUnits="userSpaceOnUse">
<stop stop-color="#9C4F4B"/>
<stop offset="1" stop-color="#6A3B88"/>
</linearGradient>
<linearGradient id="paint42_linear_453_3587" x1="1265.42" y1="311.355" x2="1256.99" y2="316.735" gradientUnits="userSpaceOnUse">
<stop stop-color="#9C4F4B"/>
<stop offset="1" stop-color="#6A3B88"/>
</linearGradient>
<linearGradient id="paint43_linear_453_3587" x1="1160.06" y1="321.777" x2="1147.39" y2="329.852" gradientUnits="userSpaceOnUse">
<stop stop-color="#9C4F4B"/>
<stop offset="1" stop-color="#6A3B88"/>
</linearGradient>
<linearGradient id="paint44_linear_453_3587" x1="1358.15" y1="325.743" x2="1298.95" y2="363.499" gradientUnits="userSpaceOnUse">
<stop stop-color="#9C4F4B"/>
<stop offset="1" stop-color="#6A3B88"/>
</linearGradient>
<linearGradient id="paint45_linear_453_3587" x1="1339.14" y1="225.942" x2="1259.2" y2="261.563" gradientUnits="userSpaceOnUse">
<stop stop-color="#9C4F4B"/>
<stop offset="1" stop-color="#6A3B88"/>
</linearGradient>
<linearGradient id="paint46_linear_453_3587" x1="1313.15" y1="210.601" x2="1303.42" y2="214.934" gradientUnits="userSpaceOnUse">
<stop stop-color="#9C4F4B"/>
<stop offset="1" stop-color="#6A3B88"/>
</linearGradient>
<linearGradient id="paint47_linear_453_3587" x1="1207.78" y1="221.062" x2="1193.19" y2="227.567" gradientUnits="userSpaceOnUse">
<stop stop-color="#9C4F4B"/>
<stop offset="1" stop-color="#6A3B88"/>
</linearGradient>
<linearGradient id="paint48_linear_453_3587" x1="1374.95" y1="207.3" x2="1306.7" y2="237.714" gradientUnits="userSpaceOnUse">
<stop stop-color="#9C4F4B"/>
<stop offset="1" stop-color="#6A3B88"/>
</linearGradient>
<linearGradient id="paint49_linear_453_3587" x1="1363.99" y1="152.709" x2="1359.4" y2="153.811" gradientUnits="userSpaceOnUse">
<stop stop-color="#9C4F4B"/>
<stop offset="1" stop-color="#6A3B88"/>
</linearGradient>
<linearGradient id="paint50_linear_453_3587" x1="1320.27" y1="158.176" x2="1313.53" y2="159.792" gradientUnits="userSpaceOnUse">
<stop stop-color="#9C4F4B"/>
<stop offset="1" stop-color="#6A3B88"/>
</linearGradient>
<linearGradient id="paint51_linear_453_3587" x1="1128.35" y1="139.085" x2="1048.4" y2="174.706" gradientUnits="userSpaceOnUse">
<stop stop-color="#9C4F4B"/>
<stop offset="1" stop-color="#6A3B88"/>
</linearGradient>
<linearGradient id="paint52_linear_453_3587" x1="1102.35" y1="123.743" x2="1092.63" y2="128.076" gradientUnits="userSpaceOnUse">
<stop stop-color="#9C4F4B"/>
<stop offset="1" stop-color="#6A3B88"/>
</linearGradient>
<linearGradient id="paint53_linear_453_3587" x1="996.99" y1="134.204" x2="982.392" y2="140.709" gradientUnits="userSpaceOnUse">
<stop stop-color="#9C4F4B"/>
<stop offset="1" stop-color="#6A3B88"/>
</linearGradient>
<linearGradient id="paint54_linear_453_3587" x1="1164.16" y1="120.443" x2="1095.9" y2="150.857" gradientUnits="userSpaceOnUse">
<stop stop-color="#9C4F4B"/>
<stop offset="1" stop-color="#6A3B88"/>
</linearGradient>
<linearGradient id="paint55_linear_453_3587" x1="1153.21" y1="65.8539" x2="1148.62" y2="66.9558" gradientUnits="userSpaceOnUse">
<stop stop-color="#9C4F4B"/>
<stop offset="1" stop-color="#6A3B88"/>
</linearGradient>
<linearGradient id="paint56_linear_453_3587" x1="1109.48" y1="71.3206" x2="1102.74" y2="72.9371" gradientUnits="userSpaceOnUse">
<stop stop-color="#9C4F4B"/>
<stop offset="1" stop-color="#6A3B88"/>
</linearGradient>
<linearGradient id="paint57_linear_453_3587" x1="1268.36" y1="555.16" x2="1353.51" y2="530.882" gradientUnits="userSpaceOnUse">
<stop stop-color="#9C4F4B"/>
<stop offset="1" stop-color="#6A3B88"/>
</linearGradient>
<linearGradient id="paint58_linear_453_3587" x1="1222.85" y1="572.391" x2="1233.03" y2="569.488" gradientUnits="userSpaceOnUse">
<stop stop-color="#9C4F4B"/>
<stop offset="1" stop-color="#6A3B88"/>
</linearGradient>
<linearGradient id="paint59_linear_453_3587" x1="1248.61" y1="552.313" x2="1264.2" y2="547.867" gradientUnits="userSpaceOnUse">
<stop stop-color="#9C4F4B"/>
<stop offset="1" stop-color="#6A3B88"/>
</linearGradient>
<linearGradient id="paint60_linear_453_3587" x1="1114.95" y1="575.222" x2="1187.5" y2="554.537" gradientUnits="userSpaceOnUse">
<stop stop-color="#9C4F4B"/>
<stop offset="1" stop-color="#6A3B88"/>
</linearGradient>
<linearGradient id="paint61_linear_453_3587" x1="1177.67" y1="632.136" x2="1182.21" y2="631.707" gradientUnits="userSpaceOnUse">
<stop stop-color="#9C4F4B"/>
<stop offset="1" stop-color="#6A3B88"/>
</linearGradient>
<linearGradient id="paint62_linear_453_3587" x1="1221.88" y1="631.821" x2="1228.9" y2="631.158" gradientUnits="userSpaceOnUse">
<stop stop-color="#9C4F4B"/>
<stop offset="1" stop-color="#6A3B88"/>
</linearGradient>
<linearGradient id="paint63_linear_453_3587" x1="1035.37" y1="524.96" x2="1061.17" y2="588.759" gradientUnits="userSpaceOnUse">
<stop stop-color="#95B736"/>
<stop offset="1" stop-color="#11293B"/>
</linearGradient>
<linearGradient id="paint64_linear_453_3587" x1="221.031" y1="248.486" x2="136.627" y2="241.756" gradientUnits="userSpaceOnUse">
<stop stop-color="#9C3D37"/>
<stop offset="1" stop-color="#632A88"/>
</linearGradient>
<linearGradient id="paint65_linear_453_3587" x1="223.043" y1="237.619" x2="231.552" y2="210.757" gradientUnits="userSpaceOnUse">
<stop stop-color="#9C3D37"/>
<stop offset="1" stop-color="#632A88"/>
</linearGradient>
<linearGradient id="paint66_linear_453_3587" x1="210.506" y1="238.03" x2="213.032" y2="230.057" gradientUnits="userSpaceOnUse">
<stop stop-color="#9C3D37"/>
<stop offset="1" stop-color="#632A88"/>
</linearGradient>
<linearGradient id="paint67_linear_453_3587" x1="228.127" y1="238.357" x2="229.478" y2="234.094" gradientUnits="userSpaceOnUse">
<stop stop-color="#9C3D37"/>
<stop offset="1" stop-color="#632A88"/>
</linearGradient>
<linearGradient id="paint68_linear_453_3587" x1="220.128" y1="257.745" x2="224.401" y2="244.257" gradientUnits="userSpaceOnUse">
<stop stop-color="#9C3D37"/>
<stop offset="1" stop-color="#632A88"/>
</linearGradient>
<linearGradient id="paint69_linear_453_3587" x1="210.354" y1="264.03" x2="211.704" y2="259.768" gradientUnits="userSpaceOnUse">
<stop stop-color="#9C3D37"/>
<stop offset="1" stop-color="#632A88"/>
</linearGradient>
<linearGradient id="paint70_linear_453_3587" x1="1098.66" y1="682.138" x2="1098.85" y2="681.548" gradientUnits="userSpaceOnUse">
<stop stop-color="#9C3D37"/>
<stop offset="1" stop-color="#632A88"/>
</linearGradient>
<linearGradient id="paint71_linear_453_3587" x1="820.396" y1="417.823" x2="1070.49" y2="369.418" gradientUnits="userSpaceOnUse">
<stop stop-color="#FF7A01"/>
<stop offset="1" stop-color="#1D1106"/>
</linearGradient>
<linearGradient id="paint72_linear_453_3587" x1="407.687" y1="-5.01444" x2="369.366" y2="218.862" gradientUnits="userSpaceOnUse">
<stop offset="0.00407" stop-color="#B0CFEF"/>
<stop offset="1" stop-color="#23002B"/>
</linearGradient>
<linearGradient id="paint73_linear_453_3587" x1="1290.15" y1="401.491" x2="1317.38" y2="243.164" gradientUnits="userSpaceOnUse">
<stop offset="0.00407" stop-color="#B0CFEF"/>
<stop offset="1" stop-color="#23002B"/>
</linearGradient>
<linearGradient id="paint74_linear_453_3587" x1="667.519" y1="141.546" x2="678.228" y2="107.738" gradientUnits="userSpaceOnUse">
<stop stop-color="#9C3D37"/>
<stop offset="1" stop-color="#632A88"/>
</linearGradient>
<linearGradient id="paint75_linear_453_3587" x1="667.519" y1="141.546" x2="678.228" y2="107.738" gradientUnits="userSpaceOnUse">
<stop stop-color="#9C3D37"/>
<stop offset="1" stop-color="#632A88"/>
</linearGradient>
<radialGradient id="paint76_radial_453_3587" cx="0" cy="0" r="1" gradientUnits="userSpaceOnUse" gradientTransform="translate(1066.24 325.238) rotate(10.0435) scale(3.54607 3.54607)">
<stop stop-color="#FFE800"/>
<stop offset="0.09519" stop-color="#F9E300"/>
<stop offset="0.21968" stop-color="#E9D400"/>
<stop offset="0.3604" stop-color="#CEBB00"/>
<stop offset="0.51307" stop-color="#A89900"/>
<stop offset="0.67543" stop-color="#786D00"/>
<stop offset="0.84311" stop-color="#3D3800"/>
<stop offset="1"/>
</radialGradient>
<radialGradient id="paint77_radial_453_3587" cx="0" cy="0" r="1" gradientUnits="userSpaceOnUse" gradientTransform="translate(1178.14 424.245) rotate(10.0434) scale(0.967168 0.967163)">
<stop stop-color="#FFE800"/>
<stop offset="0.09519" stop-color="#F9E300"/>
<stop offset="0.21968" stop-color="#E9D400"/>
<stop offset="0.3604" stop-color="#CEBB00"/>
<stop offset="0.51307" stop-color="#A89900"/>
<stop offset="0.67543" stop-color="#786D00"/>
<stop offset="0.84311" stop-color="#3D3800"/>
<stop offset="1"/>
</radialGradient>
<radialGradient id="paint78_radial_453_3587" cx="0" cy="0" r="1" gradientUnits="userSpaceOnUse" gradientTransform="translate(1170.18 395.195) rotate(-24.7893) scale(2.9012 2.90122)">
<stop stop-color="#FFE800"/>
<stop offset="0.09519" stop-color="#F9E300"/>
<stop offset="0.21968" stop-color="#E9D400"/>
<stop offset="0.3604" stop-color="#CEBB00"/>
<stop offset="0.51307" stop-color="#A89900"/>
<stop offset="0.67543" stop-color="#786D00"/>
<stop offset="0.84311" stop-color="#3D3800"/>
<stop offset="1"/>
</radialGradient>
<radialGradient id="paint79_radial_453_3587" cx="0" cy="0" r="1" gradientUnits="userSpaceOnUse" gradientTransform="translate(1192.88 413.106) rotate(10.0435) scale(3.86845 3.86844)">
<stop stop-color="#FFE800"/>
<stop offset="0.09519" stop-color="#F9E300"/>
<stop offset="0.21968" stop-color="#E9D400"/>
<stop offset="0.3604" stop-color="#CEBB00"/>
<stop offset="0.51307" stop-color="#A89900"/>
<stop offset="0.67543" stop-color="#786D00"/>
<stop offset="0.84311" stop-color="#3D3800"/>
<stop offset="1"/>
</radialGradient>
<radialGradient id="paint80_radial_453_3587" cx="0" cy="0" r="1" gradientUnits="userSpaceOnUse" gradientTransform="translate(1183.37 438.105) rotate(10.0434) scale(1.77308 1.77306)">
<stop stop-color="#FFE800"/>
<stop offset="0.09519" stop-color="#F9E300"/>
<stop offset="0.21968" stop-color="#E9D400"/>
<stop offset="0.3604" stop-color="#CEBB00"/>
<stop offset="0.51307" stop-color="#A89900"/>
<stop offset="0.67543" stop-color="#786D00"/>
<stop offset="0.84311" stop-color="#3D3800"/>
<stop offset="1"/>
</radialGradient>
<radialGradient id="paint81_radial_453_3587" cx="0" cy="0" r="1" gradientUnits="userSpaceOnUse" gradientTransform="translate(1115.25 463.199) rotate(10.0435) scale(2.90137 2.90137)">
<stop stop-color="#FFE800"/>
<stop offset="0.09519" stop-color="#F9E300"/>
<stop offset="0.21968" stop-color="#E9D400"/>
<stop offset="0.3604" stop-color="#CEBB00"/>
<stop offset="0.51307" stop-color="#A89900"/>
<stop offset="0.67543" stop-color="#786D00"/>
<stop offset="0.84311" stop-color="#3D3800"/>
<stop offset="1"/>
</radialGradient>
<radialGradient id="paint82_radial_453_3587" cx="0" cy="0" r="1" gradientUnits="userSpaceOnUse" gradientTransform="translate(1122.86 481.243) rotate(10.0436) scale(1.93419 1.93421)">
<stop stop-color="#FFE800"/>
<stop offset="0.09519" stop-color="#F9E300"/>
<stop offset="0.21968" stop-color="#E9D400"/>
<stop offset="0.3604" stop-color="#CEBB00"/>
<stop offset="0.51307" stop-color="#A89900"/>
<stop offset="0.67543" stop-color="#786D00"/>
<stop offset="0.84311" stop-color="#3D3800"/>
<stop offset="1"/>
</radialGradient>
<radialGradient id="paint83_radial_453_3587" cx="0" cy="0" r="1" gradientUnits="userSpaceOnUse" gradientTransform="translate(1145.91 450.949) rotate(10.0435) scale(3.86848)">
<stop stop-color="#FFE800"/>
<stop offset="0.09519" stop-color="#F9E300"/>
<stop offset="0.21968" stop-color="#E9D400"/>
<stop offset="0.3604" stop-color="#CEBB00"/>
<stop offset="0.51307" stop-color="#A89900"/>
<stop offset="0.67543" stop-color="#786D00"/>
<stop offset="0.84311" stop-color="#3D3800"/>
<stop offset="1"/>
</radialGradient>
</defs>
</svg>
