<svg width="40" height="41" viewBox="0 0 40 41" fill="none" xmlns="http://www.w3.org/2000/svg">
<path d="M31.5513 9.85271C29.4268 8.87788 27.1485 8.15966 24.7664 7.74831C24.7231 7.74037 24.6797 7.76021 24.6574 7.79989C24.3644 8.32102 24.0398 9.00088 23.8125 9.53525C21.2505 9.15168 18.7016 9.15168 16.192 9.53525C15.9647 8.989 15.6284 8.32102 15.3341 7.79989C15.3117 7.76153 15.2684 7.74169 15.225 7.74831C12.8442 8.15835 10.566 8.87656 8.44011 9.85271C8.4217 9.86065 8.40593 9.87388 8.39546 9.89107C4.07407 16.3471 2.89027 22.6445 3.471 28.8638C3.47363 28.8942 3.49071 28.9233 3.51436 28.9418C6.36549 31.0356 9.12729 32.3067 11.8378 33.1493C11.8812 33.1625 11.9271 33.1467 11.9548 33.1109C12.5959 32.2353 13.1675 31.3121 13.6575 30.3412C13.6864 30.2844 13.6588 30.2169 13.5997 30.1944C12.6932 29.8505 11.8299 29.4312 10.9995 28.9551C10.9339 28.9167 10.9286 28.8228 10.989 28.7778C11.1638 28.6468 11.3386 28.5106 11.5054 28.373C11.5356 28.3479 11.5777 28.3426 11.6132 28.3585C17.0684 30.8491 22.9743 30.8491 28.3651 28.3585C28.4006 28.3413 28.4427 28.3466 28.4742 28.3717C28.6411 28.5093 28.8158 28.6468 28.9919 28.7778C29.0523 28.8228 29.0484 28.9167 28.9827 28.9551C28.1523 29.4405 27.2891 29.8505 26.3812 30.1931C26.3221 30.2156 26.2958 30.2844 26.3247 30.3412C26.8253 31.3107 27.3968 32.234 28.0262 33.1096C28.0525 33.1467 28.0997 33.1625 28.1431 33.1493C30.8668 32.3067 33.6286 31.0356 36.4797 28.9418C36.5047 28.9233 36.5204 28.8955 36.5231 28.8651C37.2181 21.6749 35.3589 15.4292 31.5947 9.89238C31.5855 9.87388 31.5697 9.86065 31.5513 9.85271ZM14.4722 25.0769C12.8298 25.0769 11.4765 23.569 11.4765 21.7173C11.4765 19.8655 12.8035 18.3576 14.4722 18.3576C16.1539 18.3576 17.4941 19.8787 17.4678 21.7173C17.4678 23.569 16.1408 25.0769 14.4722 25.0769ZM25.5482 25.0769C23.9058 25.0769 22.5525 23.569 22.5525 21.7173C22.5525 19.8655 23.8795 18.3576 25.5482 18.3576C27.23 18.3576 28.5701 19.8787 28.5439 21.7173C28.5439 23.569 27.23 25.0769 25.5482 25.0769Z" fill="#F4EFF6"/>
</svg>
