<svg width="40" height="41" viewBox="0 0 40 41" fill="none" xmlns="http://www.w3.org/2000/svg">
<path d="M35 7.65608V33.2443C35 33.8293 34.7676 34.3904 34.3539 34.8041C33.9402 35.2178 33.3792 35.4502 32.7941 35.4502H7.20588C6.62085 35.4502 6.05977 35.2178 5.64609 34.8041C5.2324 34.3904 5 33.8293 5 33.2443V7.65608C5 7.07104 5.2324 6.50997 5.64609 6.09628C6.05977 5.6826 6.62085 5.4502 7.20588 5.4502H32.7941C33.3792 5.4502 33.9402 5.6826 34.3539 6.09628C34.7676 6.50997 35 7.07104 35 7.65608ZM13.8235 16.9208H9.41176V31.0384H13.8235V16.9208ZM14.2206 12.0678C14.2229 11.7341 14.1595 11.4032 14.0339 11.094C13.9084 10.7848 13.7231 10.5034 13.4888 10.2658C13.2545 10.0282 12.9756 9.83904 12.6682 9.70919C12.3608 9.57935 12.0308 9.51133 11.6971 9.50902H11.6176C10.939 9.50902 10.2882 9.77861 9.80829 10.2585C9.32841 10.7384 9.05882 11.3892 9.05882 12.0678C9.05882 12.7465 9.32841 13.3973 9.80829 13.8772C10.2882 14.3571 10.939 14.6267 11.6176 14.6267C11.9514 14.6349 12.2835 14.5772 12.5949 14.4571C12.9064 14.3369 13.1911 14.1565 13.4328 13.9263C13.6746 13.696 13.8685 13.4204 14.0037 13.1151C14.1389 12.8099 14.2126 12.481 14.2206 12.1473V12.0678ZM30.5882 22.462C30.5882 18.2178 27.8882 16.5678 25.2059 16.5678C24.3276 16.5239 23.4532 16.7109 22.6698 17.1104C21.8864 17.5098 21.2214 18.1077 20.7412 18.8443H20.6176V16.9208H16.4706V31.0384H20.8824V23.5296C20.8186 22.7606 21.0608 21.9974 21.5565 21.406C22.0521 20.8145 22.7611 20.4425 23.5294 20.3708H23.6971C25.1 20.3708 26.1412 21.2531 26.1412 23.4767V31.0384H30.5529L30.5882 22.462Z" fill="#F4EFF6"/>
</svg>
