<svg width="31" height="27" viewBox="0 0 31 27" fill="none" xmlns="http://www.w3.org/2000/svg">
<path d="M19.0247 1.78451C19.0247 1.16013 18.2532 0.866333 17.8379 1.33253L7.22145 13.2486C7.11058 13.373 7.04932 13.5339 7.04932 13.7006L7.04931 24.9341C7.04931 25.5585 7.82073 25.8523 8.23608 25.3861L18.8525 13.4701C18.9634 13.3456 19.0247 13.1848 19.0247 13.0181L19.0247 1.78451Z" fill="#FF9801" fill-opacity="0.67"/>
<path opacity="0.7" d="M7.04932 1.67997C7.04932 1.06915 6.30608 0.768545 5.88145 1.20763L0.191034 7.09178C0.0684994 7.21848 8.19363e-07 7.38785 8.16159e-07 7.56411L6.09047e-07 18.9565C5.97942e-07 19.5673 0.743243 19.8679 1.16787 19.4288L6.85828 13.5446C6.98082 13.4179 7.04932 13.2486 7.04932 13.0723L7.04932 1.67997Z" fill="#FF9801" fill-opacity="0.67"/>
<path d="M31 1.77409C31 1.15095 30.2312 0.8565 29.8149 1.32022L19.1985 13.1473C19.0866 13.272 19.0247 13.4337 19.0247 13.6012L19.0247 24.7442C19.0247 25.3673 19.7935 25.6618 20.2097 25.1981L30.8262 13.371C30.9381 13.2463 31 13.0846 31 12.9171L31 1.77409Z" fill="#FF9801" fill-opacity="0.67"/>
</svg>
