<svg width="74" height="38" viewBox="0 0 74 38" fill="none" xmlns="http://www.w3.org/2000/svg">
<path d="M32.2079 5.69238C28.2391 5.69238 24.9096 8.38437 23.9177 12.0392H40.5014C40.1939 10.9057 39.6612 9.86479 38.9541 8.96814C37.3813 6.97353 34.946 5.69238 32.2079 5.69238Z" fill="#F4EFF6"/>
<path opacity="0.987564" d="M32.2096 2.40186C26.845 2.40186 22.3132 5.71982 20.8389 10.2752C14.9535 10.7639 11.0295 11.615 11.0295 12.5895C11.0295 13.5426 14.7645 14.3801 20.4362 14.8737C23.8034 15.1666 27.8518 15.3392 32.2096 15.3392C33.2993 15.3392 34.369 15.3299 35.4141 15.3092C38.5489 15.247 41.4571 15.0935 43.983 14.8737C49.6527 14.3801 53.3895 13.5423 53.3895 12.5895C53.3895 11.615 49.4623 10.7639 43.5766 10.2752C43.2449 9.2504 42.7586 8.28805 42.1431 7.41216C40.0224 4.39475 36.3672 2.40186 32.2096 2.40186Z" stroke="#F4EFF6" stroke-width="0.570312" stroke-miterlimit="10" stroke-linecap="round" stroke-linejoin="round"/>
<path d="M39.2724 18.0811C37.0439 18.1916 34.678 18.2629 32.1756 18.2629C29.6984 18.2629 27.356 18.193 25.1465 18.0847C26.6885 20.334 29.2745 21.8131 32.2076 21.8131C35.1426 21.8131 37.7307 20.3326 39.2724 18.0811Z" fill="url(#paint0_linear_364_140)"/>
<path d="M1 1L9.62335 22.5584C9.90041 23.2511 10.3492 23.251 10.626 22.5582L13.2862 15.9981C9.81874 15.1943 7.87945 13.5938 7.87945 12.4383C7.87945 11.0199 11.2677 9.24375 16.2395 8.40688L19.25 1" stroke="#F4EFF6" stroke-width="1.36875" stroke-miterlimit="10" stroke-linecap="round" stroke-linejoin="round"/>
<path d="M51.1875 1H55.75" stroke="#F4EFF6" stroke-width="1.36875" stroke-miterlimit="10" stroke-linecap="round" stroke-linejoin="round"/>
<path d="M53.4688 1V10.0517C53.4688 10.0517 56.1534 11.005 56.1565 12.399C56.1566 13.7849 53.4688 14.7795 53.4688 14.7795V23.8125" stroke="#F4EFF6" stroke-width="1.36875" stroke-miterlimit="10" stroke-linecap="round" stroke-linejoin="round"/>
<path d="M51.1875 23.8125H55.75" stroke="#F4EFF6" stroke-width="1.36875" stroke-miterlimit="10" stroke-linecap="round" stroke-linejoin="round"/>
<path d="M58.0312 1V10.9935C58.0312 10.9935 60.7159 11.5655 60.719 12.4019C60.7191 13.2334 58.0312 13.8302 58.0312 13.8302V23.8125C58.0312 23.8125 74 21.5313 74 12.4063C74 10.9872 73.6138 9.73354 72.9615 8.62839C69.4194 2.62687 58.0312 1 58.0312 1Z" fill="#F4EFF6"/>
<path d="M5.05029 30.316C4.83118 30.3345 4.63066 30.355 4.44873 30.3773C4.2668 30.3959 4.09228 30.4163 3.92518 30.4385V36.0748C4.1703 36.1082 4.44131 36.1379 4.73833 36.1639C5.03546 36.1899 5.35849 36.2085 5.70741 36.2197C5.81885 36.2271 5.92835 36.2307 6.03602 36.2307C6.1437 36.2307 6.25331 36.2307 6.36464 36.2307C6.47607 36.2307 6.5874 36.2307 6.69884 36.2307C6.81016 36.2307 6.9216 36.2271 7.03304 36.2197C7.4488 36.2085 7.81825 36.1881 8.14127 36.1583C8.46806 36.1249 8.76326 36.0822 9.02685 36.0302C9.09369 35.6627 9.14936 35.2171 9.19396 34.6936H10.4638C10.4415 35.0909 10.41 35.4974 10.3691 35.9133C10.3283 36.3254 10.2707 36.7505 10.1965 37.1887C9.49097 37.3075 8.81892 37.3873 8.18028 37.4282C7.54541 37.469 6.94761 37.4894 6.38699 37.4894C5.81143 37.4894 5.20245 37.469 4.56017 37.4282C3.91777 37.3873 3.24947 37.3075 2.55518 37.1887V29.3135C2.99694 29.2355 3.42399 29.178 3.8361 29.1408C4.25197 29.1 4.65666 29.0684 5.05029 29.0462V30.316ZM17.7375 35.2282C17.6446 35.1466 17.5295 35.0667 17.3922 34.9888C17.2548 34.9108 17.0858 34.8421 16.8854 34.7827C16.6849 34.7195 16.4454 34.6695 16.1669 34.6324C15.8922 34.5914 15.5691 34.571 15.1979 34.571C14.8673 34.571 14.5536 34.5785 14.2566 34.5934C13.9633 34.6044 13.7052 34.6416 13.4825 34.7047C13.2596 34.7641 13.0833 34.8606 12.9533 34.9943C12.8234 35.128 12.7584 35.3137 12.7584 35.5513V36.2642C13.0851 36.3162 13.4453 36.3588 13.8389 36.3922C14.2324 36.4257 14.6706 36.4424 15.1533 36.4424C15.5394 36.4424 15.9496 36.4294 16.3841 36.4034C16.8222 36.3737 17.2733 36.3162 17.7375 36.2307V35.2282ZM15.2313 31.1514C15.4169 31.1514 15.6416 31.1607 15.9052 31.1793C16.1688 31.1978 16.4435 31.2313 16.7294 31.2795C17.0153 31.3241 17.2975 31.3872 17.576 31.4689C17.8581 31.5469 18.1107 31.6508 18.3334 31.7808C18.56 31.907 18.7419 32.0592 18.8792 32.2374C19.0166 32.4157 19.0853 32.6255 19.0853 32.8668V37.1776C18.7734 37.2406 18.4207 37.2945 18.0271 37.3391C17.6892 37.3799 17.2863 37.4171 16.8186 37.4505C16.3507 37.4839 15.829 37.5006 15.2535 37.5006C14.6817 37.5006 14.0728 37.4764 13.4267 37.4282C12.7844 37.3799 12.1124 37.2964 11.4105 37.1776V35.1726C11.4105 34.9572 11.4607 34.7697 11.561 34.61C11.6649 34.4467 11.806 34.3074 11.9843 34.1923C12.1624 34.0772 12.3722 33.9826 12.6135 33.9083C12.8549 33.8341 13.1149 33.7746 13.3933 33.73C13.6718 33.6855 13.9614 33.6558 14.2621 33.6409C14.5629 33.6224 14.8637 33.6131 15.1644 33.6131C15.6212 33.6131 16.0091 33.6428 16.3285 33.7022C16.6515 33.758 16.9187 33.8192 17.1304 33.8861C17.3754 33.9677 17.5778 34.0586 17.7375 34.1589V33.2567C17.7375 33.1044 17.7004 32.9745 17.6261 32.8668C17.5519 32.7554 17.4516 32.6626 17.3254 32.5884C17.1991 32.5104 17.0543 32.4491 16.8909 32.4045C16.7276 32.3563 16.5568 32.3192 16.3785 32.2932C16.2004 32.2672 16.0184 32.2504 15.8327 32.243C15.6508 32.2356 15.4801 32.2319 15.3204 32.2319C15.1533 32.2319 14.975 32.2374 14.7856 32.2486C14.5963 32.256 14.407 32.2728 14.2176 32.2988C14.0319 32.3247 13.8518 32.3619 13.6774 32.4101C13.5065 32.4547 13.3543 32.5159 13.2207 32.5939C13.087 32.6719 12.9793 32.7665 12.8977 32.878C12.8197 32.9857 12.7807 33.1156 12.7807 33.2678L11.3995 32.9114C11.3995 32.6626 11.4607 32.4473 11.5832 32.2654C11.7057 32.0797 11.8672 31.9218 12.0678 31.7919C12.272 31.662 12.5059 31.5561 12.7696 31.4744C13.0332 31.389 13.306 31.3241 13.5882 31.2795C13.8742 31.2313 14.1582 31.1978 14.4404 31.1793C14.7226 31.1607 14.9862 31.1514 15.2313 31.1514ZM24.4097 31.1514C24.9815 31.1514 25.492 31.1923 25.9413 31.2739C26.3942 31.3519 26.7749 31.4744 27.0831 31.6415C27.3949 31.8086 27.6326 32.0202 27.796 32.2764C27.9593 32.5326 28.041 32.8372 28.041 33.1898V35.4622C28.041 35.8149 27.9593 36.1194 27.796 36.3756C27.6326 36.6318 27.3949 36.8434 27.0831 37.0105C26.7749 37.1776 26.3942 37.3019 25.9413 37.3837C25.492 37.4616 24.9815 37.5006 24.4097 37.5006C24.0904 37.5006 23.7636 37.4894 23.4295 37.4672C23.0953 37.4412 22.7723 37.4096 22.4603 37.3725C22.1485 37.3317 21.8551 37.2852 21.5805 37.2332C21.3057 37.1813 21.0717 37.1256 20.8786 37.0661V29.0239H22.3378V31.5525C22.6683 31.4336 23.0137 31.3371 23.3737 31.2627C23.7376 31.1885 24.083 31.1514 24.4097 31.1514ZM24.0087 32.1873C23.8156 32.1873 23.6393 32.2003 23.4796 32.2263C23.3199 32.2524 23.1714 32.2858 23.0341 32.3266C22.9004 32.3674 22.7759 32.4139 22.6609 32.4658C22.5458 32.5141 22.4381 32.5624 22.3378 32.6106V36.1194C22.4381 36.1528 22.5532 36.1863 22.6832 36.2197C22.8131 36.2493 22.9505 36.2772 23.0953 36.3032C23.2438 36.3292 23.3942 36.3496 23.5464 36.3644C23.7024 36.3792 23.8565 36.3867 24.0087 36.3867C24.2389 36.3867 24.4635 36.3848 24.6826 36.3812C24.9016 36.3737 25.1059 36.357 25.2952 36.331C25.4846 36.305 25.6573 36.266 25.8132 36.2141C25.9729 36.1621 26.1084 36.0896 26.2197 35.9968C26.3349 35.9003 26.424 35.7834 26.4871 35.6459C26.5503 35.5048 26.5818 35.3323 26.5818 35.128V33.4906C26.5818 33.1972 26.5131 32.9652 26.3758 32.7944C26.2383 32.6199 26.0527 32.4881 25.8188 32.3989C25.5848 32.3098 25.3119 32.2524 25.0001 32.2263C24.6882 32.2003 24.3578 32.1873 24.0087 32.1873ZM33.2205 31.1514C33.6624 31.1514 34.0931 31.1793 34.5128 31.2349C34.9323 31.2869 35.3091 31.3779 35.6433 31.5079C35.9774 31.6341 36.2522 31.8067 36.4676 32.0258C36.6829 32.2449 36.811 32.5178 36.8518 32.8446L35.5597 33.201C35.5597 33.0079 35.4929 32.8482 35.3592 32.7219C35.2293 32.592 35.0548 32.4918 34.8358 32.4213C34.6204 32.347 34.3717 32.295 34.0895 32.2654C33.8073 32.2356 33.5177 32.2208 33.2205 32.2208C32.9347 32.2208 32.6507 32.2356 32.3685 32.2654C32.0899 32.2912 31.8394 32.3414 31.6166 32.4157C31.3975 32.4862 31.2193 32.5846 31.0819 32.7109C30.9483 32.8371 30.8815 33.0005 30.8815 33.201V33.8805H36.8518V35.8075C36.8518 36.0266 36.8036 36.2215 36.7071 36.3922C36.6105 36.5594 36.4769 36.706 36.306 36.8323C36.1353 36.9548 35.9329 37.0607 35.699 37.1497C35.4688 37.2352 35.2181 37.3038 34.9471 37.3557C34.6797 37.4077 34.3975 37.4449 34.1005 37.4672C33.8073 37.4894 33.5139 37.5006 33.2205 37.5006C32.7714 37.5006 32.3369 37.4746 31.9174 37.4226C31.4977 37.3669 31.1209 37.276 30.7868 37.1497C30.4526 37.0198 30.1778 36.8471 29.9625 36.6318C29.7508 36.4127 29.6264 36.1379 29.5892 35.8075L30.8815 35.451C30.8815 35.6553 30.9483 35.8205 31.0819 35.9467C31.2193 36.073 31.3975 36.1713 31.6166 36.2419C31.8394 36.3124 32.0899 36.3608 32.3685 36.3867C32.6507 36.409 32.9347 36.4201 33.2205 36.4201C33.5177 36.4201 33.8073 36.4071 34.0895 36.3812C34.3717 36.3514 34.6204 36.3013 34.8358 36.2307C35.0548 36.1565 35.2293 36.0582 35.3592 35.9355C35.4929 35.8094 35.5597 35.6479 35.5597 35.451V34.7715H29.5892V32.8446C29.5892 32.6254 29.6376 32.4323 29.7341 32.2654C29.8306 32.0945 29.9625 31.9478 30.1296 31.8253C30.3003 31.699 30.5008 31.5933 30.731 31.5079C30.9612 31.4188 31.21 31.3482 31.4773 31.2962C31.7484 31.2443 32.0305 31.2071 32.3239 31.1848C32.6209 31.1626 32.9199 31.1514 33.2205 31.1514Z" fill="#F4EFF6"/>
<defs>
<linearGradient id="paint0_linear_364_140" x1="32.3276" y1="20.0162" x2="34.1891" y2="29.8095" gradientUnits="userSpaceOnUse">
<stop stop-color="#F4EFF6"/>
<stop offset="1" stop-color="#171226"/>
</linearGradient>
</defs>
</svg>
