<svg width="40" height="41" viewBox="0 0 40 41" fill="none" xmlns="http://www.w3.org/2000/svg">
<path d="M19.9931 3.78369C10.7788 3.78369 3.33325 11.2429 3.33325 20.4435C3.33325 27.5051 7.72102 33.5383 13.9188 35.9652C13.7679 34.6489 13.6445 32.6196 13.9736 31.1798C14.2753 29.8772 15.9207 22.8979 15.9207 22.8979C15.9207 22.8979 15.4271 21.897 15.4271 20.4298C15.4271 18.1125 16.7708 16.3848 18.4436 16.3848C19.8697 16.3848 20.5553 17.4543 20.5553 18.7295C20.5553 20.1556 19.6503 22.2946 19.1704 24.2828C18.7727 25.9419 20.0068 27.2994 21.6385 27.2994C24.6002 27.2994 26.8764 24.1731 26.8764 19.6757C26.8764 15.6855 24.0106 12.902 19.9108 12.902C15.1665 12.902 12.383 16.4534 12.383 20.1281C12.383 21.5542 12.9315 23.0899 13.6171 23.9263C13.7542 24.0908 13.7679 24.2417 13.7268 24.4062C13.6034 24.9273 13.3154 26.0653 13.2606 26.2984C13.192 26.6001 13.0138 26.6687 12.6984 26.5178C10.6416 25.5306 9.35272 22.4866 9.35272 20.0459C9.35272 14.7943 13.1646 9.96769 20.3633 9.96769C26.136 9.96769 30.6334 14.0812 30.6334 19.5934C30.6334 25.3386 27.0135 29.9595 21.995 29.9595C20.3084 29.9595 18.7179 29.0819 18.1831 28.0398C18.1831 28.0398 17.3467 31.221 17.141 32.0025C16.7708 33.456 15.7561 35.2659 15.0705 36.3766C16.6337 36.8565 18.2791 37.117 20.0068 37.117C29.2074 37.117 36.6666 29.6578 36.6666 20.4572C36.6529 11.2429 29.1937 3.78369 19.9931 3.78369Z" fill="#F4EFF6"/>
</svg>
