<svg width="1440" height="345" viewBox="0 0 1440 345" fill="none" xmlns="http://www.w3.org/2000/svg">
<path fill-rule="evenodd" clip-rule="evenodd" d="M-0.101562 168.769C-0.101562 168.769 79.3277 168.718 91.9356 168.718C104.543 168.718 130.711 169.284 135.857 167.894C147.101 164.832 167.428 153.485 182.583 152.559C217.679 164.755 314.94 177.131 335.575 177.131C356.211 177.131 367.815 172.526 367.815 172.526L378.931 181.351C378.931 181.351 472.357 178.006 492.556 174.636C512.754 171.265 559.043 162.002 570.827 160.304L582.612 158.631L600.288 181.351C600.288 181.351 738.331 184.722 754.31 188.092C770.288 191.463 845.575 193.136 845.575 193.136L867.059 188.916C867.059 188.916 931.951 153.562 952.973 145.998C952.973 145.998 986.01 127.472 999.339 125.8C1012.69 124.127 1016.89 131.692 1016.89 131.692C1016.89 131.692 1011.84 149.368 1011.84 155.261C1011.84 161.153 1031.94 203.248 1031.94 203.248C1031.94 203.248 1041.05 193.985 1043.29 187.243C1045.52 180.502 1048.72 127.446 1050.9 120.319C1053.09 113.192 1068.81 93.5338 1068.81 93.5338C1068.81 93.5338 1071.74 47.8883 1074.19 40.5552C1076.66 33.2221 1076.66 14.4389 1079.18 9.08705C1079.18 9.08705 1086.15 -1.43665 1088.55 3.27199C1090.96 7.9549 1087.83 66.8772 1088.55 76.9892C1089.27 87.1012 1092.3 112.934 1092.89 118.518C1093.49 124.127 1092.89 167.045 1092.89 167.045C1092.89 167.045 1093.02 206.592 1096.19 214.183C1099.35 221.748 1157.58 236.054 1157.58 236.054C1157.58 236.054 1175.64 225.942 1190.1 226.791C1204.56 227.64 1208.35 231.834 1215.29 236.054C1222.24 240.273 1391.21 250.36 1407.29 250.36C1423.37 250.36 1460.01 255.403 1465.26 260.472C1470.51 265.515 1492.18 257.95 1509.96 260.472C1527.74 262.993 1598.8 261.501 1606.6 262.247C1614.42 262.993 1636.29 256.252 1636.29 256.252C1636.29 256.252 1701.05 263.817 1717.5 268.036C1733.94 272.256 1748.66 268.036 1748.66 268.036C1748.66 268.036 1783.6 273.929 1794.53 277.299C1805.47 280.67 1863.88 289.084 1880.55 290.756C1897.22 292.429 1909.01 305.062 1926.68 305.062C1944.36 305.062 2315.54 344.558 2315.54 344.558H-0.101562V168.769Z" fill="url(#paint0_linear_376_2769)"/>
<path fill-rule="evenodd" clip-rule="evenodd" d="M1501.8 325.132C1501.8 325.132 1351.38 315.997 1351.02 310.311C1350.66 304.625 1360.41 301.717 1360.41 301.717C1360.41 301.717 1263.51 290.01 1240.3 289.032C1217.09 288.054 1179.06 295.851 1179.06 295.851C1179.06 295.851 1138.08 290.807 1124.93 288.929C1111.78 287.051 1079.62 279.255 1079.62 279.255C1079.62 279.255 878.74 253.962 841.689 250.025C804.637 246.088 758.451 237.211 758.451 237.211C758.451 237.211 694.46 231.756 654.501 226.25C614.516 220.744 550.396 205.769 526.39 206.901C502.384 208.059 473.128 213.539 448.762 206.901C424.395 200.263 379.522 206.567 361.974 206.335C344.426 206.103 255.682 212.407 255.682 212.407L277.141 226.25C277.141 226.25 414.541 240.531 444.851 243.155C475.161 245.779 609.422 251.929 635.358 254.373C661.294 256.818 829.981 266.389 855.351 273.8C880.696 281.21 962.595 301.666 962.595 301.666C962.595 301.666 1019.3 297.755 1052.86 294.847C1086.41 291.914 1209.27 304.599 1226.82 304.599C1244.37 304.599 1336.02 310.26 1336.02 310.26C1336.02 310.26 1363.68 324.18 1374.72 326.573C1385.75 328.965 1501.77 325.054 1501.77 325.054L1501.8 325.132Z" fill="url(#paint1_linear_376_2769)"/>
<path fill-rule="evenodd" clip-rule="evenodd" d="M837.265 314.401C837.265 314.401 954.801 326.109 976.26 325.131C997.719 324.153 1209.71 339.951 1209.71 339.951L1251.24 344.557H1095.42C1095.42 344.557 992.831 341.109 958.712 339.951C924.594 338.794 842.334 316.357 823.5 314.401C804.665 312.446 758.273 310.31 758.273 310.31C758.273 310.31 800.96 299.761 814.031 300.739C827.102 301.716 837.317 314.401 837.317 314.401H837.265Z" fill="url(#paint2_linear_376_2769)"/>
<path fill-rule="evenodd" clip-rule="evenodd" d="M856.69 196.712C856.69 196.712 892.867 197.227 909.695 196.712C926.522 196.197 952.536 181.917 959.689 177.363C966.842 172.808 968.771 150.629 965.529 143.553C962.313 136.477 862.248 188.761 856.69 196.712Z" fill="#723EA9"/>
<path fill-rule="evenodd" clip-rule="evenodd" d="M972.243 140.208C966.969 146.254 993.497 140.208 1001.94 140.208C1010.38 140.208 1016.91 131.691 1016.91 131.691C1016.91 131.691 992.596 116.819 972.243 140.208Z" fill="#9B3DBB"/>
<path fill-rule="evenodd" clip-rule="evenodd" d="M1050.9 120.319C1050.9 120.319 1070.82 122.712 1077.97 117.824C1085.13 112.935 1088.88 90.8325 1088.88 90.8325L1068.81 93.5599C1068.81 93.5599 1052.45 110.13 1050.9 120.345V120.319Z" fill="#723EA9"/>
<path fill-rule="evenodd" clip-rule="evenodd" d="M1096.21 214.183C1096.21 214.183 1071.49 226.662 1061.06 229.261C1061.06 229.261 1096.16 232.503 1119.58 234.458C1142.96 236.414 1154.62 235.308 1154.62 235.308C1154.62 235.308 1105.35 218.583 1096.21 214.183Z" fill="#723EA9"/>
<path fill-rule="evenodd" clip-rule="evenodd" d="M1160.72 234.458C1160.72 234.458 1168.98 237.52 1185.24 237.289C1201.5 237.057 1204.72 229.801 1204.72 229.801C1204.72 229.801 1183.67 218.866 1160.72 234.458Z" fill="#723EA9"/>
<path fill-rule="evenodd" clip-rule="evenodd" d="M475.166 181.505C475.166 181.505 554.621 157.859 582.616 158.605L591.338 173.297C591.338 173.297 540.341 198.076 475.166 181.505Z" fill="#723EA9"/>
<path fill-rule="evenodd" clip-rule="evenodd" d="M335.579 177.131C335.579 177.131 352.715 180.348 361.978 180.837C371.241 181.325 375.95 178.984 375.95 178.984L367.819 172.526C367.819 172.526 347.209 171.985 335.579 177.131Z" fill="#723EA9"/>
<path fill-rule="evenodd" clip-rule="evenodd" d="M182.583 152.559C182.583 152.559 157.393 153.022 135.857 167.894C135.857 167.894 156.261 173.606 168.92 169.901C181.605 166.196 186.957 156.933 182.583 152.533V152.559Z" fill="#723EA9"/>
<path fill-rule="evenodd" clip-rule="evenodd" d="M1293.28 263.456C1293.28 263.456 1382.18 248.352 1407.34 250.385C1432.53 252.418 1465.31 260.497 1465.31 260.497C1465.31 260.497 1408.27 269.477 1388.25 270.017C1368.23 270.558 1293.28 263.482 1293.28 263.482V263.456Z" fill="#723EA9"/>
<path fill-rule="evenodd" clip-rule="evenodd" d="M654.504 226.328C654.504 226.328 748.188 235.514 764.166 238.37C780.145 241.2 900.562 257.05 932.416 260.987C964.271 264.923 1079.62 279.332 1079.62 279.332C1079.62 279.332 953.618 246.192 941.036 243.593C928.48 240.994 871.359 235.514 861.89 235.642C852.421 235.797 809.117 239.914 770.522 231.706C699.017 216.525 654.504 226.328 654.504 226.328Z" fill="url(#paint3_linear_376_2769)"/>
<path fill-rule="evenodd" clip-rule="evenodd" d="M958.687 265.052L962.598 301.743L1052.89 294.924L1069.92 279.306L958.687 265.052Z" fill="#9800AC"/>
<path fill-rule="evenodd" clip-rule="evenodd" d="M1180.5 301.407L1179.06 295.875C1179.06 295.875 1222.47 288.671 1233.66 288.98C1244.85 289.288 1272.18 291.759 1272.18 291.759L1276.55 306.836L1180.48 301.382L1180.5 301.407Z" fill="#9800AC"/>
<path fill-rule="evenodd" clip-rule="evenodd" d="M1341.86 299.53L1336.04 310.337L1351.02 317.49V310.337L1360.41 301.743C1360.41 301.743 1347.62 300.225 1341.86 299.53Z" fill="#9800AC"/>
<path fill-rule="evenodd" clip-rule="evenodd" d="M1410.84 318.57L1434.51 326.958L1501.8 325.131L1410.84 318.57Z" fill="#9800AC"/>
<path fill-rule="evenodd" clip-rule="evenodd" d="M576.901 214.183L599.543 254.296L657.385 256.123L718.494 260.111L775.564 264.64V241.946L751.635 237.314C751.635 237.314 585.417 219.895 576.875 214.183H576.901Z" fill="#B23AD8"/>
<path fill-rule="evenodd" clip-rule="evenodd" d="M867.06 254.45L878.742 280.258L962.597 301.743L958.686 265.051L867.06 254.45Z" fill="#B23AD8"/>
<path fill-rule="evenodd" clip-rule="evenodd" d="M823.475 303.465V314.401L758.249 310.31C758.249 310.31 797.796 299.014 823.475 303.44V303.465Z" fill="#1F0A70"/>
<path fill-rule="evenodd" clip-rule="evenodd" d="M1004.51 327.421L1006.59 344.557H1149.5L1154.64 335.937C1154.64 335.937 1048.04 323.535 1004.51 327.421Z" fill="#1F0A70"/>
<path fill-rule="evenodd" clip-rule="evenodd" d="M1078.22 12.3029C1078.22 12.3029 1071.46 46.7814 1071.82 50.1006C1072.18 53.4455 1069.91 82.8295 1069.91 82.8295C1069.91 82.8295 1074.39 70.8907 1074.08 69.6814C1073.77 68.4463 1075.26 59.4407 1075.26 59.4407C1075.26 59.4407 1073.59 51.3099 1075.26 47.579C1076.94 43.8481 1081.95 39.9371 1081.95 39.9371L1083.52 54.552L1087.31 23.5213L1078.22 12.2771V12.3029Z" fill="#9B3DBB"/>
<path fill-rule="evenodd" clip-rule="evenodd" d="M967.047 144.763L971.55 183.718C971.55 183.718 999.853 186.497 1004.48 179.859C1009.12 173.22 1011.84 155.261 1011.84 155.261L1016.89 131.692C1016.89 131.692 1014.9 137.61 1001.91 140.208C988.917 142.807 967.021 144.763 967.021 144.763H967.047Z" fill="url(#paint4_linear_376_2769)"/>
<path fill-rule="evenodd" clip-rule="evenodd" d="M917.747 196.918C917.747 196.918 930.432 208.78 936.273 209.089C942.114 209.423 965.039 206.953 965.039 206.953C965.039 206.953 975.923 193.162 976.901 188.273C977.879 183.41 967.046 144.712 967.046 144.712C967.046 144.712 965.528 170.853 962.621 174.07C959.687 177.312 931.744 193.136 917.773 196.867L917.747 196.918Z" fill="url(#paint5_linear_376_2769)"/>
<path fill-rule="evenodd" clip-rule="evenodd" d="M1078 117.797C1078 117.797 1073.5 162.311 1075.27 164.909C1077.02 167.508 1078.67 176.925 1079.65 179.859C1080.62 182.792 1075.27 210.787 1075.27 210.787L1064 229.518L1096.27 214.157C1096.27 214.157 1095.29 165.553 1095.44 158.065C1095.6 150.578 1095.44 117.797 1095.44 117.797L1092.97 118.518L1089.11 82.8557L1088.68 53.4459L1089.53 20.6142V15.4424C1089.53 15.4424 1086.08 31.3694 1084.82 33.7881C1083.56 36.2067 1085.51 72.615 1085.51 72.615L1084.87 91.1408L1088.68 92.273C1088.68 92.273 1083.22 111.674 1078.02 117.823L1078 117.797Z" fill="url(#paint6_linear_376_2769)"/>
<path fill-rule="evenodd" clip-rule="evenodd" d="M1465.31 260.471L1400.14 270.043H1378.78C1378.78 270.043 1407.29 272.333 1422.06 273.877C1436.83 275.42 1482.14 261.526 1482.14 261.526L1465.31 260.497V260.471Z" fill="url(#paint7_linear_376_2769)"/>
<path fill-rule="evenodd" clip-rule="evenodd" d="M1220.8 237.314C1220.8 237.314 1206.67 247.709 1197.56 250.179C1188.45 252.675 1154.62 243.747 1154.62 243.747L1176.13 243.953L1182 237.288C1182 237.288 1198.82 234.87 1204.69 229.801L1220.8 237.314Z" fill="url(#paint8_linear_376_2769)"/>
<path fill-rule="evenodd" clip-rule="evenodd" d="M600.29 181.351C600.29 181.351 584.054 190.614 573.608 193.032C563.161 195.451 512.447 193.032 512.447 193.032L493.612 187.217C493.612 187.217 531.23 188.735 556.008 183.1C580.786 177.466 591.336 173.297 591.336 173.297L600.29 181.325V181.351Z" fill="url(#paint9_linear_376_2769)"/>
<path fill-rule="evenodd" clip-rule="evenodd" d="M367.818 172.525L357.809 176.694H336.659C336.659 176.694 361.128 186.728 378.933 181.325L367.818 172.5V172.525Z" fill="url(#paint10_linear_376_2769)"/>
<path fill-rule="evenodd" clip-rule="evenodd" d="M182.581 152.559C182.581 152.559 176.328 166.505 168.918 169.927C168.918 169.927 194.597 173.169 213.457 161.256L182.581 152.584V152.559Z" fill="url(#paint11_linear_376_2769)"/>
<path fill-rule="evenodd" clip-rule="evenodd" d="M1026.64 207.905V226.328C1026.64 226.328 1016.83 226.148 1004.51 226.07C992.183 226.019 976.977 223.214 976.977 223.214L950.912 207.905C950.912 207.905 996.094 209.835 1009.73 209.14C1023.39 208.471 1026.64 207.905 1026.64 207.905Z" fill="url(#paint12_linear_376_2769)"/>
<path fill-rule="evenodd" clip-rule="evenodd" d="M950.912 207.905C950.912 207.905 996.3 193.212 1006.59 193.032C1016.88 192.852 1026.64 207.905 1026.64 207.905C1026.64 207.905 1020.98 212.613 1006.59 212.485C992.183 212.356 950.912 207.905 950.912 207.905Z" fill="#723EA9"/>
<path fill-rule="evenodd" clip-rule="evenodd" d="M1046.14 186.368C1046.14 186.368 1035.64 197.046 1031.96 203.247C1031.96 203.247 1051.03 209.319 1061.09 207.904C1071.15 206.489 1075.24 197.226 1075.24 197.226L1072.46 196.917L1075.24 191.153C1075.24 191.153 1059.13 182.122 1046.14 186.368Z" fill="#723EA9"/>
<path fill-rule="evenodd" clip-rule="evenodd" d="M1074.21 40.555C1074.21 40.555 1080.87 39.4228 1083.5 36.1808C1086.15 32.9388 1089.47 15.3908 1089.47 15.3908L1088.88 0.647359C1088.88 0.647359 1082.03 -0.176015 1079.59 4.01802C1077.14 8.21205 1074.18 40.5293 1074.18 40.5293L1074.21 40.555Z" fill="#BB61BB"/>
<path fill-rule="evenodd" clip-rule="evenodd" d="M1089.47 295.311L1062.48 294.487C1062.48 294.487 972.325 287 966.639 286.691C960.952 286.408 838.785 264.614 838.785 264.614C838.785 264.614 747.057 263.457 734.397 262.968C721.712 262.479 562.674 245.265 555.032 245.857C547.39 246.449 386.833 237.289 386.833 237.289C386.833 237.289 502.027 246.577 512.448 247.349C522.869 248.121 693.975 262.247 707.638 262.247C721.301 262.247 842.67 273.851 842.67 273.851C842.67 273.851 959.28 301.717 967.024 301.717C974.769 301.717 1061.07 297.909 1061.07 297.909L1089.47 295.311Z" fill="white"/>
<path fill-rule="evenodd" clip-rule="evenodd" d="M1190.29 301.743C1190.29 301.743 1272.85 300.765 1282.04 301.743C1291.22 302.72 1333.63 310.337 1333.63 310.337L1190.29 301.743Z" fill="white"/>
<path style="mix-blend-mode:screen" opacity="0.7" d="M621.493 331.564C788.991 331.564 924.775 284.448 924.775 226.327C924.775 168.207 788.991 121.09 621.493 121.09C453.995 121.09 318.21 168.207 318.21 226.327C318.21 284.448 453.995 331.564 621.493 331.564Z" fill="url(#paint13_radial_376_2769)" fill-opacity="0.5"/>
<path style="mix-blend-mode:screen" d="M971.553 332.465C1080.97 332.465 1169.68 310.497 1169.68 283.398C1169.68 256.298 1080.97 234.33 971.553 234.33C862.132 234.33 773.43 256.298 773.43 283.398C773.43 310.497 862.132 332.465 971.553 332.465Z" fill="url(#paint14_radial_376_2769)"/>
<path style="mix-blend-mode:screen" d="M1276.58 332.851C1332.13 332.851 1377.16 317.218 1377.16 297.935C1377.16 278.651 1332.13 263.019 1276.58 263.019C1221.03 263.019 1176 278.651 1176 297.935C1176 317.218 1221.03 332.851 1276.58 332.851Z" fill="url(#paint15_radial_376_2769)"/>
<g opacity="0.6">
<path fill-rule="evenodd" clip-rule="evenodd" d="M560.382 13.8726C562.003 13.9498 563.264 15.365 563.187 16.986C563.11 18.607 561.695 19.8677 560.074 19.7906C558.453 19.7134 557.192 18.2982 557.269 16.6772C557.346 15.0562 558.761 13.7954 560.382 13.8726Z" fill="white" fill-opacity="0.6"/>
<path fill-rule="evenodd" clip-rule="evenodd" d="M538.253 112.548C539.411 112.599 540.286 113.603 540.234 114.76C540.183 115.918 539.179 116.793 538.021 116.742C536.864 116.69 535.989 115.687 536.04 114.555C536.092 113.397 537.095 112.522 538.253 112.573V112.548Z" fill="white" fill-opacity="0.6"/>
<path fill-rule="evenodd" clip-rule="evenodd" d="M512.91 127.009C513.759 127.061 514.402 127.781 514.351 128.63C514.299 129.479 513.579 130.122 512.73 130.071C511.881 130.02 511.238 129.299 511.289 128.45C511.34 127.601 512.061 126.958 512.91 127.009Z" fill="white" fill-opacity="0.6"/>
<path fill-rule="evenodd" clip-rule="evenodd" d="M548.439 62.9916C548.979 63.0174 549.391 63.4805 549.365 64.0208C549.34 64.5612 548.876 64.9728 548.336 64.9471C547.796 64.9213 547.384 64.4582 547.41 63.9179C547.436 63.3775 547.899 62.9659 548.439 62.9916Z" fill="white" fill-opacity="0.6"/>
<path fill-rule="evenodd" clip-rule="evenodd" d="M536.917 119.084C537.457 119.11 537.869 119.573 537.843 120.113C537.817 120.653 537.354 121.065 536.814 121.039C536.273 121.014 535.862 120.55 535.887 120.01C535.913 119.47 536.376 119.058 536.917 119.084Z" fill="white" fill-opacity="0.6"/>
<path fill-rule="evenodd" clip-rule="evenodd" d="M560.073 119.316C560.613 119.342 561.025 119.805 560.999 120.345C560.973 120.885 560.51 121.297 559.97 121.271C559.43 121.246 559.018 120.783 559.044 120.242C559.069 119.702 559.533 119.29 560.073 119.316Z" fill="white" fill-opacity="0.6"/>
<path fill-rule="evenodd" clip-rule="evenodd" d="M554.823 106.372C555.364 106.398 555.775 106.861 555.75 107.401C555.724 107.942 555.261 108.353 554.72 108.328C554.18 108.302 553.768 107.839 553.794 107.299C553.82 106.758 554.283 106.347 554.823 106.372Z" fill="white" fill-opacity="0.6"/>
<path fill-rule="evenodd" clip-rule="evenodd" d="M539.309 101.896C539.592 101.896 539.798 102.153 539.772 102.41C539.772 102.693 539.515 102.899 539.258 102.874C538.975 102.874 538.769 102.616 538.795 102.359C538.82 102.102 539.052 101.87 539.309 101.896Z" fill="white" fill-opacity="0.6"/>
<path fill-rule="evenodd" clip-rule="evenodd" d="M529.091 162.826C529.374 162.826 529.58 163.083 529.554 163.34C529.528 163.597 529.297 163.829 529.04 163.803C528.757 163.803 528.551 163.546 528.576 163.289C528.576 163.006 528.834 162.8 529.091 162.826Z" fill="white" fill-opacity="0.6"/>
<path fill-rule="evenodd" clip-rule="evenodd" d="M546.952 109.718C547.235 109.718 547.441 109.975 547.415 110.233C547.415 110.516 547.158 110.721 546.9 110.696C546.617 110.696 546.411 110.438 546.437 110.181C546.437 109.898 546.695 109.692 546.952 109.718Z" fill="white" fill-opacity="0.6"/>
<path fill-rule="evenodd" clip-rule="evenodd" d="M531.18 105.112C531.72 105.138 532.132 105.601 532.106 106.142C532.08 106.682 531.617 107.094 531.077 107.068C530.537 107.042 530.125 106.579 530.151 106.039C530.176 105.498 530.639 105.087 531.18 105.112Z" fill="white" fill-opacity="0.6"/>
<g style="mix-blend-mode:soft-light">
<path fill-rule="evenodd" clip-rule="evenodd" d="M884.789 213C886.41 213.077 887.67 214.492 887.593 216.113C887.516 217.734 886.101 218.995 884.48 218.918C882.859 218.84 881.598 217.425 881.675 215.804C881.752 214.183 883.168 212.922 884.789 213Z" fill="white" fill-opacity="0.6"/>
</g>
<g style="mix-blend-mode:soft-light">
<path fill-rule="evenodd" clip-rule="evenodd" d="M863.147 258.413C864.305 258.465 865.18 259.468 865.128 260.626C865.077 261.784 864.073 262.659 862.915 262.607C861.758 262.556 860.883 261.552 860.934 260.395C860.986 259.237 861.989 258.362 863.147 258.413Z" fill="white" fill-opacity="0.6"/>
</g>
<g style="mix-blend-mode:soft-light">
<path fill-rule="evenodd" clip-rule="evenodd" d="M837.806 272.873C838.655 272.925 839.298 273.645 839.247 274.494C839.195 275.344 838.475 275.987 837.626 275.935C836.777 275.884 836.134 275.163 836.185 274.314C836.236 273.465 836.957 272.822 837.806 272.873Z" fill="white" fill-opacity="0.6"/>
</g>
<g style="mix-blend-mode:soft-light">
<path fill-rule="evenodd" clip-rule="evenodd" d="M873.366 208.832C873.906 208.857 874.318 209.32 874.292 209.861C874.266 210.401 873.803 210.813 873.263 210.787C872.723 210.761 872.311 210.298 872.337 209.758C872.362 209.218 872.825 208.806 873.366 208.832Z" fill="white" fill-opacity="0.6"/>
</g>
<g style="mix-blend-mode:soft-light">
<path fill-rule="evenodd" clip-rule="evenodd" d="M861.811 264.922C862.351 264.948 862.763 265.411 862.737 265.952C862.712 266.492 862.248 266.904 861.708 266.878C861.168 266.852 860.756 266.389 860.782 265.849C860.808 265.308 861.271 264.897 861.811 264.922Z" fill="white" fill-opacity="0.6"/>
</g>
<g style="mix-blend-mode:soft-light">
<path fill-rule="evenodd" clip-rule="evenodd" d="M884.969 265.181C885.509 265.207 885.921 265.67 885.895 266.21C885.869 266.75 885.406 267.162 884.866 267.136C884.326 267.111 883.914 266.647 883.94 266.107C883.965 265.567 884.428 265.155 884.969 265.181Z" fill="white" fill-opacity="0.6"/>
</g>
<g style="mix-blend-mode:soft-light">
<path fill-rule="evenodd" clip-rule="evenodd" d="M879.748 252.237C880.288 252.263 880.7 252.726 880.674 253.266C880.649 253.807 880.186 254.218 879.645 254.193C879.105 254.167 878.693 253.704 878.719 253.164C878.745 252.623 879.208 252.211 879.748 252.237Z" fill="white" fill-opacity="0.6"/>
</g>
<g style="mix-blend-mode:soft-light">
<path fill-rule="evenodd" clip-rule="evenodd" d="M864.228 247.735C864.511 247.735 864.717 247.993 864.691 248.25C864.691 248.533 864.434 248.739 864.177 248.713C863.894 248.713 863.688 248.456 863.714 248.198C863.714 247.915 863.971 247.709 864.228 247.735Z" fill="white" fill-opacity="0.6"/>
</g>
<g style="mix-blend-mode:soft-light">
<path fill-rule="evenodd" clip-rule="evenodd" d="M871.848 255.558C872.131 255.558 872.337 255.815 872.311 256.072C872.311 256.355 872.054 256.561 871.796 256.535C871.513 256.535 871.307 256.278 871.333 256.021C871.333 255.738 871.591 255.532 871.848 255.558Z" fill="white" fill-opacity="0.6"/>
</g>
<g style="mix-blend-mode:soft-light">
<path fill-rule="evenodd" clip-rule="evenodd" d="M856.099 250.977C856.639 251.003 857.051 251.466 857.025 252.006C856.999 252.547 856.536 252.958 855.996 252.932C855.455 252.907 855.044 252.444 855.07 251.903C855.095 251.363 855.558 250.951 856.099 250.977Z" fill="white" fill-opacity="0.6"/>
</g>
<path fill-rule="evenodd" clip-rule="evenodd" d="M527.778 150.268C528.318 150.294 528.73 150.757 528.704 151.298C528.678 151.838 528.215 152.25 527.675 152.224C527.135 152.198 526.723 151.735 526.749 151.195C526.774 150.654 527.238 150.243 527.778 150.268Z" fill="white" fill-opacity="0.6"/>
<path fill-rule="evenodd" clip-rule="evenodd" d="M480.492 160.715C481.033 160.741 481.444 161.204 481.419 161.745C481.393 162.285 480.93 162.697 480.389 162.671C479.849 162.645 479.437 162.182 479.463 161.642C479.489 161.101 479.952 160.69 480.492 160.715Z" fill="white" fill-opacity="0.6"/>
<path fill-rule="evenodd" clip-rule="evenodd" d="M598.203 190.46C599.824 190.537 601.085 191.952 601.008 193.573C600.931 195.194 599.515 196.455 597.894 196.378C596.273 196.301 595.013 194.886 595.09 193.265C595.167 191.644 596.582 190.383 598.203 190.46Z" fill="white" fill-opacity="0.6"/>
<path fill-rule="evenodd" clip-rule="evenodd" d="M917.9 225.479C919.521 225.556 920.782 226.971 920.704 228.592C920.627 230.213 919.212 231.474 917.591 231.397C915.97 231.32 914.709 229.905 914.787 228.284C914.864 226.663 916.279 225.402 917.9 225.479Z" fill="white" fill-opacity="0.6"/>
<path fill-rule="evenodd" clip-rule="evenodd" d="M670.122 206.413C671.743 206.49 673.003 207.905 672.926 209.526C672.849 211.147 671.434 212.408 669.813 212.33C668.192 212.253 666.931 210.838 667.008 209.217C667.085 207.596 668.501 206.335 670.122 206.413Z" fill="white" fill-opacity="0.6"/>
<path fill-rule="evenodd" clip-rule="evenodd" d="M874.448 242.924C876.069 243.001 877.33 244.416 877.252 246.037C877.175 247.658 875.76 248.919 874.139 248.841C872.518 248.764 871.257 247.349 871.334 245.728C871.412 244.107 872.827 242.846 874.448 242.924Z" fill="white" fill-opacity="0.6"/>
<path fill-rule="evenodd" clip-rule="evenodd" d="M542.165 190.435C543.786 190.512 545.046 191.927 544.969 193.548C544.892 195.169 543.477 196.43 541.856 196.353C540.235 196.275 538.974 194.86 539.051 193.239C539.128 191.618 540.544 190.357 542.165 190.435Z" fill="white" fill-opacity="0.6"/>
<path fill-rule="evenodd" clip-rule="evenodd" d="M525.414 217.81C527.035 217.887 528.296 219.302 528.219 220.923C528.142 222.544 526.726 223.805 525.105 223.728C523.484 223.651 522.224 222.236 522.301 220.615C522.378 218.994 523.793 217.733 525.414 217.81Z" fill="white" fill-opacity="0.6"/>
<path fill-rule="evenodd" clip-rule="evenodd" d="M612.384 152.636C613.542 152.688 614.417 153.691 614.366 154.849C614.314 156.007 613.311 156.882 612.153 156.83C610.995 156.779 610.12 155.775 610.172 154.618C610.223 153.46 611.227 152.585 612.384 152.636Z" fill="white" fill-opacity="0.6"/>
<path fill-rule="evenodd" clip-rule="evenodd" d="M730.636 203.015C731.794 203.067 732.669 204.07 732.618 205.228C732.566 206.386 731.563 207.261 730.405 207.209C729.247 207.158 728.372 206.154 728.424 204.996C728.475 203.839 729.478 202.964 730.636 203.015Z" fill="white" fill-opacity="0.6"/>
<path fill-rule="evenodd" clip-rule="evenodd" d="M707.354 201.446C708.512 201.498 709.386 202.501 709.335 203.659C709.283 204.817 708.28 205.692 707.122 205.641C705.964 205.589 705.089 204.586 705.141 203.428C705.192 202.27 706.196 201.395 707.354 201.446Z" fill="white" fill-opacity="0.6"/>
<path fill-rule="evenodd" clip-rule="evenodd" d="M576.567 235.873C577.725 235.925 578.6 236.928 578.548 238.086C578.497 239.244 577.493 240.119 576.335 240.067C575.178 240.016 574.303 239.012 574.354 237.855C574.406 236.697 575.409 235.822 576.567 235.873Z" fill="white" fill-opacity="0.6"/>
<path fill-rule="evenodd" clip-rule="evenodd" d="M552.07 129.479C553.228 129.53 554.103 130.534 554.052 131.691C554 132.849 552.997 133.724 551.839 133.673C550.681 133.621 549.806 132.618 549.858 131.486C549.909 130.328 550.913 129.453 552.07 129.504V129.479Z" fill="white" fill-opacity="0.6"/>
<path fill-rule="evenodd" clip-rule="evenodd" d="M526.883 209.5C527.732 209.552 528.376 210.272 528.324 211.121C528.273 211.97 527.552 212.614 526.703 212.562C525.854 212.511 525.211 211.79 525.262 210.941C525.314 210.092 526.034 209.449 526.883 209.5Z" fill="white" fill-opacity="0.6"/>
<path fill-rule="evenodd" clip-rule="evenodd" d="M425.297 180.862C426.146 180.914 426.79 181.634 426.738 182.483C426.687 183.332 425.966 183.976 425.117 183.924C424.268 183.873 423.625 183.152 423.676 182.303C423.728 181.454 424.448 180.811 425.297 180.862Z" fill="white" fill-opacity="0.6"/>
<path fill-rule="evenodd" clip-rule="evenodd" d="M586.778 186.291C587.318 186.317 587.73 186.78 587.704 187.32C587.678 187.861 587.215 188.272 586.675 188.247C586.135 188.221 585.723 187.758 585.749 187.218C585.774 186.677 586.238 186.265 586.778 186.291Z" fill="white" fill-opacity="0.6"/>
<path fill-rule="evenodd" clip-rule="evenodd" d="M575.223 242.383C575.764 242.409 576.175 242.872 576.15 243.413C576.124 243.953 575.661 244.365 575.12 244.339C574.58 244.313 574.168 243.85 574.194 243.31C574.22 242.769 574.683 242.358 575.223 242.383Z" fill="white" fill-opacity="0.6"/>
<path fill-rule="evenodd" clip-rule="evenodd" d="M532.797 214.26C533.337 214.286 533.749 214.749 533.723 215.289C533.697 215.83 533.234 216.241 532.694 216.215C532.154 216.19 531.742 215.727 531.768 215.186C531.793 214.646 532.257 214.234 532.797 214.26Z" fill="white" fill-opacity="0.6"/>
<path fill-rule="evenodd" clip-rule="evenodd" d="M598.383 242.64C598.923 242.666 599.335 243.129 599.309 243.67C599.283 244.21 598.82 244.622 598.28 244.596C597.74 244.57 597.328 244.107 597.354 243.567C597.379 243.026 597.843 242.615 598.383 242.64Z" fill="white" fill-opacity="0.6"/>
<path fill-rule="evenodd" clip-rule="evenodd" d="M593.163 229.698C593.703 229.724 594.115 230.187 594.089 230.727C594.063 231.268 593.6 231.679 593.06 231.654C592.519 231.628 592.108 231.165 592.133 230.624C592.159 230.084 592.622 229.672 593.163 229.698Z" fill="white" fill-opacity="0.6"/>
<path fill-rule="evenodd" clip-rule="evenodd" d="M523.691 174.172C524.231 174.198 524.643 174.661 524.617 175.201C524.592 175.742 524.128 176.154 523.588 176.128C523.048 176.102 522.636 175.639 522.662 175.099C522.688 174.558 523.151 174.147 523.691 174.172Z" fill="white" fill-opacity="0.6"/>
<path fill-rule="evenodd" clip-rule="evenodd" d="M577.623 225.195C577.906 225.195 578.112 225.452 578.086 225.709C578.086 225.992 577.829 226.198 577.572 226.173C577.289 226.173 577.083 225.915 577.109 225.658C577.109 225.375 577.366 225.169 577.623 225.195Z" fill="white" fill-opacity="0.6"/>
<path fill-rule="evenodd" clip-rule="evenodd" d="M513.685 177.98C513.968 177.98 514.174 178.237 514.148 178.495C514.148 178.778 513.891 178.983 513.634 178.958C513.351 178.958 513.145 178.7 513.171 178.443C513.171 178.16 513.428 177.954 513.685 177.98Z" fill="white" fill-opacity="0.6"/>
<path fill-rule="evenodd" clip-rule="evenodd" d="M529.454 181.994C529.737 181.994 529.943 182.251 529.917 182.509C529.917 182.792 529.66 182.998 529.403 182.972C529.12 182.972 528.914 182.715 528.94 182.457C528.94 182.174 529.197 181.968 529.454 181.994Z" fill="white" fill-opacity="0.6"/>
<path fill-rule="evenodd" clip-rule="evenodd" d="M525.826 215.804C526.109 215.804 526.315 216.061 526.289 216.318C526.289 216.601 526.032 216.807 525.774 216.781C525.491 216.781 525.286 216.524 525.311 216.267C525.311 215.984 525.569 215.778 525.826 215.804Z" fill="white" fill-opacity="0.6"/>
<path fill-rule="evenodd" clip-rule="evenodd" d="M585.26 233.017C585.543 233.017 585.749 233.275 585.723 233.532C585.723 233.815 585.466 234.021 585.208 233.995C584.951 233.969 584.719 233.738 584.745 233.48C584.745 233.197 585.002 232.992 585.26 233.017Z" fill="white" fill-opacity="0.6"/>
<g style="mix-blend-mode:soft-light">
<path fill-rule="evenodd" clip-rule="evenodd" d="M597.586 164.035C598.899 164.112 599.902 165.218 599.825 166.531C599.748 167.843 598.641 168.846 597.329 168.769C596.017 168.692 595.013 167.585 595.091 166.273C595.168 164.961 596.274 163.957 597.586 164.035Z" fill="white" fill-opacity="0.6"/>
</g>
<g style="mix-blend-mode:soft-light">
<path fill-rule="evenodd" clip-rule="evenodd" d="M655.094 176.771C656.406 176.848 657.409 177.954 657.332 179.266C657.255 180.579 656.149 181.582 654.836 181.505C653.524 181.428 652.521 180.321 652.598 179.009C652.675 177.697 653.782 176.693 655.094 176.771Z" fill="white" fill-opacity="0.6"/>
</g>
<g style="mix-blend-mode:soft-light">
<path fill-rule="evenodd" clip-rule="evenodd" d="M608.933 133.775C609.859 133.827 610.554 134.624 610.503 135.525C610.451 136.426 609.653 137.146 608.753 137.094C607.827 137.043 607.132 136.245 607.183 135.345C607.235 134.419 608.032 133.724 608.933 133.775Z" fill="white" fill-opacity="0.6"/>
</g>
<g style="mix-blend-mode:soft-light">
<path fill-rule="evenodd" clip-rule="evenodd" d="M703.47 174.069C704.396 174.121 705.091 174.918 705.04 175.819C704.988 176.745 704.191 177.44 703.29 177.388C702.364 177.337 701.669 176.539 701.72 175.639C701.772 174.712 702.57 174.018 703.47 174.069Z" fill="white" fill-opacity="0.6"/>
</g>
<g style="mix-blend-mode:soft-light">
<path fill-rule="evenodd" clip-rule="evenodd" d="M684.839 172.783C685.766 172.834 686.46 173.632 686.409 174.532C686.357 175.459 685.56 176.153 684.659 176.102C683.733 176.05 683.038 175.253 683.09 174.352C683.141 173.452 683.939 172.731 684.839 172.783Z" fill="white" fill-opacity="0.6"/>
</g>
<g style="mix-blend-mode:soft-light">
<path fill-rule="evenodd" clip-rule="evenodd" d="M580.296 200.314C581.222 200.366 581.917 201.163 581.865 202.064C581.814 202.99 581.016 203.685 580.116 203.634C579.189 203.582 578.495 202.784 578.546 201.884C578.598 200.958 579.395 200.263 580.296 200.314Z" fill="white" fill-opacity="0.6"/>
</g>
<g style="mix-blend-mode:soft-light">
<path fill-rule="evenodd" clip-rule="evenodd" d="M588.451 160.689C588.889 160.689 589.223 161.075 589.197 161.512C589.197 161.949 588.811 162.284 588.374 162.258C587.937 162.258 587.602 161.872 587.628 161.435C587.628 160.997 588.014 160.663 588.451 160.689Z" fill="white" fill-opacity="0.6"/>
</g>
<g style="mix-blend-mode:soft-light">
<path fill-rule="evenodd" clip-rule="evenodd" d="M579.218 205.537C579.656 205.537 579.99 205.923 579.964 206.361C579.964 206.798 579.579 207.133 579.141 207.107C578.704 207.107 578.369 206.721 578.395 206.283C578.395 205.846 578.781 205.512 579.218 205.537Z" fill="white" fill-opacity="0.6"/>
</g>
<g style="mix-blend-mode:soft-light">
<path fill-rule="evenodd" clip-rule="evenodd" d="M597.739 205.717C598.177 205.717 598.511 206.103 598.485 206.54C598.485 206.977 598.1 207.312 597.662 207.286C597.225 207.286 596.89 206.9 596.916 206.463C596.916 206.025 597.302 205.691 597.739 205.717Z" fill="white" fill-opacity="0.6"/>
</g>
<g style="mix-blend-mode:soft-light">
<path fill-rule="evenodd" clip-rule="evenodd" d="M593.548 195.373C593.986 195.373 594.32 195.759 594.295 196.197C594.295 196.634 593.909 196.969 593.471 196.943C593.034 196.943 592.699 196.557 592.725 196.12C592.725 195.682 593.111 195.348 593.548 195.373Z" fill="white" fill-opacity="0.6"/>
</g>
<g style="mix-blend-mode:soft-light">
<path fill-rule="evenodd" clip-rule="evenodd" d="M581.147 191.798C581.353 191.798 581.533 192.004 581.507 192.21C581.507 192.416 581.301 192.596 581.096 192.57C580.89 192.57 580.71 192.364 580.735 192.158C580.735 191.952 580.941 191.772 581.147 191.798Z" fill="white" fill-opacity="0.6"/>
</g>
<g style="mix-blend-mode:soft-light">
<path fill-rule="evenodd" clip-rule="evenodd" d="M587.243 198.051C587.449 198.051 587.629 198.256 587.603 198.462C587.578 198.668 587.398 198.848 587.192 198.822C586.986 198.822 586.806 198.617 586.832 198.411C586.832 198.205 587.037 198.025 587.243 198.051Z" fill="white" fill-opacity="0.6"/>
</g>
<path fill-rule="evenodd" clip-rule="evenodd" d="M529.122 208.497C529.405 208.497 529.611 208.754 529.585 209.011C529.585 209.294 529.328 209.5 529.07 209.474C528.787 209.474 528.581 209.217 528.607 208.96C528.633 208.703 528.864 208.471 529.122 208.497Z" fill="white" fill-opacity="0.6"/>
<path fill-rule="evenodd" clip-rule="evenodd" d="M569.517 228.437C570.057 228.462 570.469 228.926 570.443 229.466C570.417 230.006 569.954 230.418 569.414 230.392C568.873 230.366 568.462 229.903 568.487 229.363C568.513 228.823 568.976 228.411 569.517 228.437Z" fill="white" fill-opacity="0.6"/>
<path fill-rule="evenodd" clip-rule="evenodd" d="M517.489 194.294C518.029 194.32 518.441 194.783 518.415 195.323C518.389 195.864 517.926 196.275 517.386 196.249C516.846 196.224 516.434 195.761 516.46 195.22C516.485 194.68 516.948 194.268 517.489 194.294Z" fill="white" fill-opacity="0.6"/>
<path fill-rule="evenodd" clip-rule="evenodd" d="M525.49 204.663C526.031 204.688 526.442 205.152 526.417 205.692C526.391 206.232 525.928 206.644 525.387 206.618C524.847 206.592 524.435 206.129 524.461 205.589C524.487 205.049 524.95 204.637 525.49 204.663Z" fill="white" fill-opacity="0.6"/>
<path fill-rule="evenodd" clip-rule="evenodd" d="M946.434 248.069C948.055 248.147 949.315 249.562 949.238 251.183C949.161 252.804 947.746 254.065 946.125 253.987C944.504 253.91 943.243 252.495 943.32 250.874C943.397 249.253 944.813 247.992 946.434 248.069Z" fill="white" fill-opacity="0.6"/>
<path fill-rule="evenodd" clip-rule="evenodd" d="M929.687 275.447C931.308 275.524 932.569 276.939 932.492 278.56C932.414 280.181 930.999 281.442 929.378 281.365C927.757 281.287 926.496 279.872 926.574 278.251C926.651 276.63 928.066 275.37 929.687 275.447Z" fill="white" fill-opacity="0.6"/>
<path fill-rule="evenodd" clip-rule="evenodd" d="M931.152 267.136C932.001 267.187 932.644 267.908 932.593 268.757C932.542 269.606 931.821 270.249 930.972 270.198C930.123 270.146 929.48 269.426 929.531 268.577C929.583 267.727 930.303 267.084 931.152 267.136Z" fill="white" fill-opacity="0.6"/>
<path fill-rule="evenodd" clip-rule="evenodd" d="M937.05 271.896C937.591 271.922 938.002 272.385 937.977 272.925C937.951 273.465 937.488 273.877 936.947 273.851C936.407 273.826 935.995 273.362 936.021 272.822C936.047 272.282 936.51 271.87 937.05 271.896Z" fill="white" fill-opacity="0.6"/>
<path fill-rule="evenodd" clip-rule="evenodd" d="M933.731 239.63C934.014 239.63 934.22 239.887 934.194 240.144C934.194 240.427 933.936 240.633 933.679 240.607C933.396 240.607 933.19 240.35 933.216 240.093C933.216 239.81 933.473 239.604 933.731 239.63Z" fill="white" fill-opacity="0.6"/>
<path fill-rule="evenodd" clip-rule="evenodd" d="M930.103 273.439C930.386 273.439 930.592 273.697 930.566 273.954C930.566 274.237 930.309 274.443 930.051 274.417C929.768 274.417 929.562 274.16 929.588 273.903C929.588 273.62 929.845 273.414 930.103 273.439Z" fill="white" fill-opacity="0.6"/>
<path fill-rule="evenodd" clip-rule="evenodd" d="M933.395 266.132C933.678 266.132 933.884 266.39 933.858 266.647C933.858 266.93 933.601 267.136 933.343 267.11C933.06 267.11 932.854 266.853 932.88 266.596C932.88 266.312 933.137 266.107 933.395 266.132Z" fill="white" fill-opacity="0.6"/>
<path fill-rule="evenodd" clip-rule="evenodd" d="M921.737 251.903C922.277 251.929 922.689 252.392 922.663 252.933C922.637 253.473 922.174 253.884 921.634 253.859C921.094 253.833 920.682 253.37 920.708 252.83C920.733 252.289 921.197 251.878 921.737 251.903Z" fill="white" fill-opacity="0.6"/>
<path fill-rule="evenodd" clip-rule="evenodd" d="M929.765 262.298C930.306 262.324 930.717 262.787 930.692 263.327C930.666 263.867 930.203 264.279 929.662 264.253C929.122 264.228 928.71 263.765 928.736 263.224C928.762 262.684 929.225 262.272 929.765 262.298Z" fill="white" fill-opacity="0.6"/>
<path fill-rule="evenodd" clip-rule="evenodd" d="M515.787 233.712C516.328 233.738 516.739 234.201 516.713 234.741C516.688 235.281 516.225 235.693 515.684 235.667C515.144 235.642 514.732 235.178 514.758 234.638C514.784 234.098 515.247 233.686 515.787 233.712Z" fill="white" fill-opacity="0.6"/>
</g>
<path fill-rule="evenodd" clip-rule="evenodd" d="M-0.101562 207.369C-0.101562 207.369 32.756 142.323 34.0425 132.339C35.3547 122.382 40.4493 68.657 40.4493 68.657C40.4493 68.657 71.4543 69.1459 84.4481 77.2252C97.4676 85.3045 103.9 107.613 103.9 107.613C103.9 107.613 115.402 145.565 113.06 148.935C110.744 152.306 103.9 156.963 103.9 156.963C103.9 156.963 119.518 214.573 122.297 225.045C125.05 235.518 169.152 262.817 169.152 262.817C169.152 262.817 208.262 244.626 212.173 234.205C216.084 223.785 213.897 221.212 213.897 221.212C213.897 221.212 209.832 207.935 209.832 203.226C209.832 198.518 268.857 200.242 268.857 200.242C268.857 200.242 305.78 215.294 309.665 225.766C313.55 236.238 304.467 241.178 304.467 241.178C304.467 241.178 356.906 236.753 369.694 241.178L383.459 252.423L464.407 262.046C464.407 262.046 470.531 229.986 478.044 226.769C487.152 222.858 550.191 262.843 550.191 262.843C550.191 262.843 581.84 311.911 591.36 315.822C600.88 319.733 627.254 322.64 637.468 319.733C647.683 316.8 677.916 307.048 689.624 311.937C701.331 316.8 753.975 345 753.975 345H-0.101562V207.42V207.369Z" fill="url(#paint16_linear_376_2769)"/>
<path fill-rule="evenodd" clip-rule="evenodd" d="M40.4482 68.6824C40.4482 68.6824 48.9907 101.977 55.8092 118.213C62.6277 134.449 70.9129 139.312 70.9129 139.312L84.447 135.89C84.447 135.89 92.8608 146.877 96.2829 148.935C99.705 150.993 113.059 148.935 113.059 148.935C113.059 148.935 110.898 120.76 105.057 99.816L101.146 91.5309C101.146 91.5309 88.2036 75.9383 84.447 71.3068C80.6904 66.6754 40.4482 68.6824 40.4482 68.6824Z" fill="#210648"/>
<path fill-rule="evenodd" clip-rule="evenodd" d="M122.272 225.046L106.499 220.723C106.499 220.723 110.076 240.227 114.372 244.112C118.669 248.023 126.955 256.308 126.955 256.308V251.445C126.955 251.445 133.773 255.845 140.128 259.73C146.484 263.615 161.51 266.549 161.51 266.549H174.273L169.126 262.818C169.126 262.818 126.826 229.368 122.272 225.046Z" fill="#210648"/>
<path fill-rule="evenodd" clip-rule="evenodd" d="M310.514 228.905V229.111C305.831 234.102 290.316 234.849 290.316 234.849L275.212 232.404L258.153 234.849C258.153 234.849 228.409 224.608 223.546 220.723C219.455 217.455 212.585 207.394 210.449 204.204C210.038 203.586 209.806 203.226 209.806 203.226C218.529 194.967 271.199 201.219 271.199 201.219C298.498 209.35 306.861 219.076 309.382 224.634C309.408 224.685 309.434 224.711 309.434 224.711C310.411 226.846 310.514 228.365 310.514 228.905Z" fill="#210648"/>
<path fill-rule="evenodd" clip-rule="evenodd" d="M304.442 241.153L277.142 254.841C277.142 254.841 310.694 253.374 321.938 252.397C333.208 251.419 338.56 247.997 338.56 247.997L349.779 243.623L369.642 241.153C369.642 241.153 337.582 233.331 304.416 241.153H304.442Z" fill="#210648"/>
<path fill-rule="evenodd" clip-rule="evenodd" d="M384.408 254.841L369.665 257.774L336.138 263.615C336.138 263.615 379.442 276.789 395.575 279.696L407.308 275.296C407.308 275.296 429.745 281.137 458.486 284.559C487.252 287.982 522.837 284.559 522.837 284.559C522.837 284.559 489.928 265.03 464.352 261.994C464.352 261.994 405.353 253.349 384.382 254.815L384.408 254.841Z" fill="#210648"/>
<path fill-rule="evenodd" clip-rule="evenodd" d="M478.018 226.718C478.018 226.718 473.31 239.634 475.188 246.247C477.041 252.885 501.922 270.922 518.492 273.83C535.062 276.763 550.192 262.791 550.192 262.791C550.192 262.791 500.455 225.894 478.044 226.718H478.018Z" fill="#210648"/>
<path fill-rule="evenodd" clip-rule="evenodd" d="M637.443 319.681C637.443 319.681 644.725 325.624 676.913 335.273C709.102 344.948 740.493 337.795 740.493 337.795C740.493 337.795 700.946 309.749 684.838 310.752C668.731 311.756 637.417 319.681 637.417 319.681H637.443Z" fill="#210648"/>
<path fill-rule="evenodd" clip-rule="evenodd" d="M473.078 321.637C473.078 321.637 504.315 316.774 522.841 321.637C541.367 326.5 591.309 335.3 591.309 335.3C591.309 335.3 470.017 340.163 434.509 335.3C434.509 335.3 455.453 323.464 473.053 321.637H473.078Z" fill="#210648"/>
<defs>
<linearGradient id="paint0_linear_376_2769" x1="1157.76" y1="344.558" x2="1157.76" y2="2.06267" gradientUnits="userSpaceOnUse">
<stop stop-color="#231962"/>
<stop offset="1" stop-color="#87369C"/>
</linearGradient>
<linearGradient id="paint1_linear_376_2769" x1="255.708" y1="265.669" x2="1501.8" y2="265.669" gradientUnits="userSpaceOnUse">
<stop stop-color="#FC72EC"/>
<stop offset="1" stop-color="#BD29B3"/>
</linearGradient>
<linearGradient id="paint2_linear_376_2769" x1="758.248" y1="322.635" x2="1251.21" y2="322.635" gradientUnits="userSpaceOnUse">
<stop stop-color="#4F2580"/>
<stop offset="1" stop-color="#200377"/>
</linearGradient>
<linearGradient id="paint3_linear_376_2769" x1="654.504" y1="251.261" x2="1079.62" y2="251.261" gradientUnits="userSpaceOnUse">
<stop stop-color="#6040AE"/>
<stop offset="1" stop-color="#3D14A8"/>
</linearGradient>
<linearGradient id="paint4_linear_376_2769" x1="991.979" y1="184.284" x2="991.979" y2="131.692" gradientUnits="userSpaceOnUse">
<stop stop-color="#4F2580"/>
<stop offset="1" stop-color="#200377"/>
</linearGradient>
<linearGradient id="paint5_linear_376_2769" x1="947.363" y1="209.14" x2="947.363" y2="144.763" gradientUnits="userSpaceOnUse">
<stop stop-color="#4F2580"/>
<stop offset="1" stop-color="#200377"/>
</linearGradient>
<linearGradient id="paint6_linear_376_2769" x1="1080.11" y1="229.518" x2="1080.11" y2="15.4167" gradientUnits="userSpaceOnUse">
<stop stop-color="#200377"/>
<stop offset="1" stop-color="#612597"/>
</linearGradient>
<linearGradient id="paint7_linear_376_2769" x1="1430.45" y1="273.98" x2="1430.45" y2="260.471" gradientUnits="userSpaceOnUse">
<stop stop-color="#4F2580"/>
<stop offset="1" stop-color="#200377"/>
</linearGradient>
<linearGradient id="paint8_linear_376_2769" x1="1187.73" y1="250.617" x2="1187.73" y2="229.801" gradientUnits="userSpaceOnUse">
<stop stop-color="#4F2580"/>
<stop offset="1" stop-color="#200377"/>
</linearGradient>
<linearGradient id="paint9_linear_376_2769" x1="493.612" y1="183.718" x2="600.29" y2="183.718" gradientUnits="userSpaceOnUse">
<stop stop-color="#4F2580"/>
<stop offset="1" stop-color="#200377"/>
</linearGradient>
<linearGradient id="paint10_linear_376_2769" x1="336.659" y1="177.723" x2="378.933" y2="177.723" gradientUnits="userSpaceOnUse">
<stop stop-color="#4F2580"/>
<stop offset="1" stop-color="#200377"/>
</linearGradient>
<linearGradient id="paint11_linear_376_2769" x1="168.918" y1="161.436" x2="213.457" y2="161.436" gradientUnits="userSpaceOnUse">
<stop stop-color="#4F2580"/>
<stop offset="1" stop-color="#200377"/>
</linearGradient>
<linearGradient id="paint12_linear_376_2769" x1="950.912" y1="217.116" x2="1026.64" y2="217.116" gradientUnits="userSpaceOnUse">
<stop stop-color="#4F2580"/>
<stop offset="1" stop-color="#200377"/>
</linearGradient>
<radialGradient id="paint13_radial_376_2769" cx="0" cy="0" r="1" gradientUnits="userSpaceOnUse" gradientTransform="translate(624.969 227.886) scale(304.178 105.568)">
<stop stop-color="#BF2E90"/>
<stop offset="1"/>
</radialGradient>
<radialGradient id="paint14_radial_376_2769" cx="0" cy="0" r="1" gradientUnits="userSpaceOnUse" gradientTransform="translate(967.488 285.133) scale(197.699 49.2163)">
<stop stop-color="#BF2E90"/>
<stop offset="1"/>
</radialGradient>
<radialGradient id="paint15_radial_376_2769" cx="0" cy="0" r="1" gradientUnits="userSpaceOnUse" gradientTransform="translate(1282.01 299.707) scale(100.868 35.0071)">
<stop stop-color="#BF2E90"/>
<stop offset="1"/>
</radialGradient>
<linearGradient id="paint16_linear_376_2769" x1="376.924" y1="344.948" x2="376.924" y2="68.6827" gradientUnits="userSpaceOnUse">
<stop stop-color="#1A142A"/>
<stop offset="1" stop-color="#000027"/>
</linearGradient>
</defs>
</svg>
