<svg width="40" height="41" viewBox="0 0 40 41" fill="none" xmlns="http://www.w3.org/2000/svg">
<path fill-rule="evenodd" clip-rule="evenodd" d="M36.6666 20.4504C36.6666 29.6551 29.2047 37.117 19.9999 37.117C10.7952 37.117 3.33325 29.6551 3.33325 20.4504C3.33325 11.2456 10.7952 3.78369 19.9999 3.78369C29.2047 3.78369 36.6666 11.2456 36.6666 20.4504ZM20.5971 16.0878C18.9761 16.762 15.7362 18.1576 10.8775 20.2744C10.0885 20.5882 9.67525 20.8951 9.63762 21.1952C9.57404 21.7025 10.2092 21.9022 11.0742 22.1742C11.1918 22.2112 11.3137 22.2495 11.4387 22.2901C12.2897 22.5667 13.4344 22.8904 14.0295 22.9032C14.5693 22.9149 15.1717 22.6923 15.8369 22.2356C20.3765 19.1712 22.7199 17.6223 22.867 17.5889C22.9708 17.5654 23.1146 17.5358 23.2121 17.6224C23.3095 17.709 23.2999 17.873 23.2896 17.9171C23.2267 18.1853 20.7334 20.5033 19.4431 21.7029C19.0409 22.0768 18.7555 22.3421 18.6972 22.4027C18.5666 22.5384 18.4334 22.6667 18.3054 22.7901C17.5148 23.5522 16.922 24.1238 18.3382 25.057C19.0188 25.5055 19.5634 25.8764 20.1067 26.2464C20.7001 26.6505 21.2919 27.0535 22.0577 27.5555C22.2528 27.6834 22.4391 27.8162 22.6206 27.9456C23.3111 28.4379 23.9315 28.8801 24.6979 28.8096C25.1433 28.7686 25.6033 28.3499 25.8369 27.1009C26.3891 24.1492 27.4744 17.7538 27.7252 15.1184C27.7472 14.8875 27.7195 14.592 27.6973 14.4623C27.6751 14.3326 27.6287 14.1477 27.4601 14.0109C27.2604 13.8489 26.9522 13.8147 26.8143 13.8172C26.1874 13.8282 25.2257 14.1626 20.5971 16.0878Z" fill="#F4EFF6"/>
</svg>
