<svg width="40" height="41" viewBox="0 0 40 41" fill="none" xmlns="http://www.w3.org/2000/svg">
<path d="M33.254 13.6501C33.2743 13.9439 33.2743 14.2378 33.2743 14.5344C33.2743 23.5709 26.3951 33.9927 13.816 33.9927V33.9873C10.1001 33.9927 6.46143 32.9283 3.33325 30.9214C3.87357 30.9864 4.4166 31.0189 4.96099 31.0202C8.04041 31.023 11.0318 29.9897 13.4545 28.0871C10.5281 28.0316 7.96187 26.1235 7.06539 23.3379C8.09051 23.5357 9.14678 23.495 10.1529 23.2201C6.96248 22.5755 4.66713 19.7724 4.66713 16.5169C4.66713 16.4871 4.66713 16.4587 4.66713 16.4302C5.61777 16.9597 6.68216 17.2536 7.77093 17.2861C4.76598 15.2778 3.83972 11.2803 5.65433 8.15479C9.12647 12.4273 14.2494 15.0246 19.7487 15.2995C19.1976 12.9242 19.9505 10.4352 21.7272 8.76553C24.4816 6.17632 28.8137 6.30903 31.4029 9.06209C32.9344 8.76011 34.4024 8.19812 35.7457 7.40186C35.2352 8.98491 34.1668 10.3296 32.7394 11.1841C34.095 11.0243 35.4194 10.6614 36.6666 10.1075C35.7485 11.4834 34.592 12.6818 33.254 13.6501Z" fill="#F4EFF6"/>
</svg>
