<svg width="427" height="188" viewBox="0 0 427 188" fill="none" xmlns="http://www.w3.org/2000/svg">
<path d="M414.309 33.9413C415.155 36.5695 414.172 39.7323 411.202 43.4469C408.253 47.1349 403.505 51.1563 397.327 55.3914C384.982 63.8536 367.149 73.0208 347.25 81.9618C307.466 99.8379 259.608 116.73 231.359 125.188C203.11 133.648 151.441 146.559 105.849 154.247C83.0457 158.093 61.81 160.623 45.7985 160.649C37.785 160.662 31.147 160.047 26.2958 158.688C21.3956 157.316 18.6233 155.277 17.787 152.678C16.9501 150.077 18.0305 146.894 21.2449 143.11C24.4281 139.363 29.5128 135.261 36.0956 130.932C49.2484 122.282 68.1577 112.867 89.1309 103.68C131.065 85.3122 181.073 67.9291 209.324 59.4693C237.575 51.0098 287.096 38.5894 330.538 31.3916C352.267 27.7915 372.426 25.5063 387.627 25.6632C395.236 25.7418 401.534 26.4321 406.146 27.8398C410.793 29.2579 413.465 31.3168 414.309 33.9413Z" stroke="url(#paint0_linear_108_18776)" stroke-width="2"/>
<path d="M11.476 144L2.567 36.79H12.08L21.14 140.225H21.895L32.012 38.3H41.978L27.331 144H11.476ZM69.9508 144C65.8234 144 62.9544 143.346 61.3438 142.037C59.7331 140.728 58.9278 138.564 58.9278 135.544V40.414C61.1424 39.206 64.0114 38.3 67.5348 37.696C71.1588 37.092 75.9404 36.79 81.8798 36.79C84.5978 36.79 86.8124 37.4947 88.5238 38.904C90.2351 40.2127 91.0908 41.924 91.0908 44.038L90.0338 144H69.9508ZM79.3128 135.393L80.6718 134.034L81.5778 47.813C81.5778 47.3097 81.1248 47.0077 80.2188 46.907L70.8568 46.454L69.4978 47.36L68.5918 134.487L79.3128 135.393ZM126.353 144H115.179V50.984L112.461 43.736V36.79H127.712L126.353 144ZM168.442 36.79C173.274 36.79 177.2 38.3503 180.22 41.471C183.34 44.5917 184.901 48.568 184.901 53.4L180.371 135.393L171.16 144H151.077V36.79H168.442ZM171.915 47.662C171.915 47.058 171.311 46.756 170.103 46.756H163.308C163.006 46.756 162.704 46.8567 162.402 47.058C162.1 47.2593 161.949 47.4607 161.949 47.662V133.128L163.308 134.034L168.895 133.279C169.801 132.675 170.254 132.021 170.254 131.316L171.915 47.662ZM237.679 144H207.177V36.79H218.351V128.145L220.616 131.618L237.679 133.581V144ZM293.565 144H286.921L281.485 103.834L269.405 109.572L266.083 144H256.721L263.516 36.79H287.374L293.565 144ZM279.522 44.038C279.522 43.434 279.22 43.132 278.616 43.132L272.123 44.642C271.519 44.944 271.217 45.4473 271.217 46.152V99.304C271.217 99.8073 271.519 100.059 272.123 100.059L277.71 99.153C278.314 99.153 278.616 98.851 278.616 98.247L279.522 44.038ZM339.26 87.526C341.676 87.9287 343.539 88.3817 344.847 88.885C346.257 89.2877 346.961 89.942 346.961 90.848V136.45C346.961 138.262 345.653 139.47 343.035 140.074C340.519 140.678 338.052 140.98 335.636 140.98H315.1V36.79H332.163C335.284 36.79 338.254 37.2933 341.072 38.3C343.992 39.3067 345.451 41.2193 345.451 44.038L345.3 45.548L340.921 84.053C340.921 85.1603 340.821 85.9153 340.619 86.318C340.418 86.7207 339.965 87.1233 339.26 87.526ZM323.707 81.335C323.707 82.1403 324.311 82.543 325.519 82.543L331.257 80.278C332.163 80.0767 332.616 79.6237 332.616 78.919L334.126 46.303C334.126 45.9003 333.422 45.699 332.012 45.699H325.519C324.311 45.699 323.707 45.9003 323.707 46.303V81.335ZM330.955 132.524C332.767 132.524 334.026 132.121 334.73 131.316C335.536 130.511 335.938 129.705 335.938 128.9C335.938 128.296 335.838 127.994 335.636 127.994V94.019C335.938 93.8177 336.089 93.6667 336.089 93.566C336.089 93.264 335.737 93.113 335.032 93.113H328.69C328.388 93.113 328.036 93.2137 327.633 93.415C327.331 93.6163 327.13 93.8177 327.029 94.019V132.071C327.13 132.172 327.331 132.272 327.633 132.373C327.935 132.474 328.288 132.524 328.69 132.524H330.955ZM393.268 58.081L390.248 46.303L381.188 47.36L378.923 80.882L400.818 84.808L398.704 134.94C398.704 136.953 397.395 138.967 394.778 140.98C392.16 142.993 389.744 144 387.53 144H369.863L368.504 118.179H377.413L377.262 131.316L387.832 133.732L390.248 93.566L369.863 89.036V40.414L375.903 36.79H399.61L398.855 58.081H393.268Z" fill="#F4EFF6"/>
<path d="M28.7892 135.01C26.4994 136.739 14.7183 145.892 16.692 152.025C24.6887 176.878 174.956 142.129 231.525 125.19C288.093 108.25 422.089 57.6089 414.092 32.7564C412.101 26.566 398.941 25.1372 388.286 24.687" stroke="url(#paint1_linear_108_18776)" stroke-width="2"/>
<defs>
<linearGradient id="paint0_linear_108_18776" x1="234.839" y1="126.47" x2="217.498" y2="55.4282" gradientUnits="userSpaceOnUse">
<stop stop-color="#FF9E00"/>
<stop offset="1" stop-color="#FF9E00" stop-opacity="0"/>
</linearGradient>
<linearGradient id="paint1_linear_108_18776" x1="222.326" y1="127.299" x2="209.614" y2="85.4135" gradientUnits="userSpaceOnUse">
<stop stop-color="#FF9E00"/>
<stop offset="1" stop-color="#FF9E00" stop-opacity="0"/>
</linearGradient>
</defs>
</svg>
